<svg width="1813" height="1336" viewBox="0 0 1813 1336" fill="none" xmlns="http://www.w3.org/2000/svg">
<path d="M1717.93 74.304C1716.31 74.3006 1714.6 74.2558 1712.83 74.1799C1709.01 74.0154 1704.88 73.7082 1700.66 73.328C1696.48 72.9496 1692.2 72.4978 1688.09 72.0125C1685.57 71.714 1683.1 71.4024 1680.77 71.085C1677.08 70.5939 1678.96 68.5404 1676.4 68.1139C1675.97 68.0436 1675.54 67.9866 1675.12 67.9408C1670.63 67.456 1666.33 68.2024 1661.75 67.4068C1661.66 67.3926 1661.58 67.3779 1661.5 67.3627C1659.8 67.0387 1661.91 63.7598 1660.13 63.495C1656.1 62.9023 1652.04 62.7018 1648.05 62.6053C1642.69 62.4719 1637.6 62.7001 1632.39 62.5171C1626.35 62.3083 1620.08 62.3091 1613.9 62.4865C1602.38 62.8178 1590.82 63.7723 1579.24 65.2254C1567.67 66.6782 1556.08 68.6285 1544.46 70.9617C1532.92 73.28 1521.35 75.9764 1509.71 78.9481C1504.83 80.193 1499.95 81.4866 1495.05 82.8215C1488.77 84.5302 1481.83 86.079 1474.75 87.7869C1464.53 90.2526 1454.08 93.0391 1445.05 96.9866C1443.27 97.7707 1445.31 100.105 1445.03 100.45C1443.35 102.546 1442.31 102.874 1441.44 102.53C1440.08 102.009 1439.13 99.8857 1436.75 100.211C1427.02 101.558 1416.95 103.969 1407.54 106.866C1401.84 108.62 1396.35 110.57 1391.25 112.604C1385.49 114.91 1393.11 118.507 1386.22 117.307C1385.74 117.23 1386.32 113.849 1384.61 114.045C1382.29 114.314 1378.94 115.386 1376.01 116.352C1374.03 117.002 1372.25 117.604 1371.08 117.875C1365.52 119.157 1364.64 119.476 1359.54 121.121C1355.03 122.562 1349.81 123.643 1344.76 125.136C1342 125.953 1339.3 126.892 1336.8 128.071C1335.3 128.791 1338.43 130.969 1336.15 132.381C1333.87 133.783 1327.32 136.02 1324.89 136.212C1322.45 136.393 1322.45 133.745 1321.86 133.376C1319.22 131.707 1316.56 133.541 1314.57 135.711C1312.81 137.617 1311.58 139.779 1311.17 140.04C1303.14 145.097 1295.32 148.624 1287.58 152.111C1279.9 155.581 1272.44 158.929 1265.31 163.655C1263.7 164.731 1262.06 165.875 1260.42 167.076C1256.61 169.875 1253.27 172.673 1249.68 175.807C1246.1 178.939 1242.58 182.181 1239.08 185.32C1237.63 186.621 1236.18 187.904 1234.73 189.154C1232.44 191.122 1230.18 193.021 1227.92 194.875C1223.97 198.108 1220.04 201.205 1216.06 204.321C1212.06 207.448 1208.01 210.595 1203.8 213.923C1202.27 215.134 1200.72 216.369 1199.14 217.634C1197.78 218.713 1201.65 220.382 1199.96 221.728C1197.73 223.482 1195.47 225.186 1193.32 226.732C1193.32 226.732 1193.32 226.732 1193.32 226.732C1187.09 231.208 1180.97 235.537 1174.68 239.835C1168.41 244.124 1162.07 248.314 1155.6 252.37C1153.16 253.905 1150.69 255.421 1148.21 256.916C1146.43 257.987 1146.54 253.803 1144.64 254.724C1141.18 256.423 1137.01 258.29 1132.94 260.513C1125.57 264.53 1118.54 269.743 1116.77 276.911C1116.23 279.072 1116.18 281.407 1116.74 283.938C1112.15 287.346 1106.99 291.323 1101.81 294.492C1099.25 296.06 1096.69 297.427 1094.18 298.426C1089.31 300.379 1090.48 294.557 1087.01 299.749C1086.23 300.919 1089.62 301.988 1088.3 303.567C1086.9 305.241 1085.36 306.866 1083.77 308.475C1083.77 308.475 1083.77 308.475 1083.77 308.475C1079.04 313.262 1073.87 317.838 1070.14 323.132C1069.13 324.577 1071.39 326.227 1071.39 326.925C1071.27 332.653 1061.7 332.758 1060.29 333.487C1055.91 335.757 1052.5 338.287 1049.48 341.001C1045.14 344.901 1041.62 349.178 1037.17 353.687C1035.41 355.461 1040.13 355.929 1038.54 357.728C1032.42 364.609 1025.81 371.393 1018.88 377.59C1016.44 379.764 1013.97 381.865 1011.46 383.872C1009.31 385.585 1008.76 381.59 1007.61 382.297C1002.58 385.442 1006.02 390.485 1001.27 393.585C1000.28 394.243 998.777 391.9 998.415 391.848C992.751 391.025 995.526 397.678 995.038 398.397C991.518 403.744 986.727 406.053 982.045 408.652C978.676 410.521 975.364 412.54 972.593 415.959C971.804 416.942 976.23 417.312 973.86 419.932C966.309 428.284 958.134 436.516 949.538 444.325C940.168 452.84 930.293 460.849 920.253 467.968C917.261 470.09 917.48 466.438 917.096 466.357C911.029 465.149 913.641 471.689 912.907 472.67C912.423 473.296 911.907 473.88 911.368 474.432C905.391 480.547 896.81 482.437 896.873 491.76C889.606 496.946 882.465 502.246 875.42 507.408C875.42 507.408 875.42 507.408 875.42 507.408C869.659 511.63 863.914 515.951 858.15 520.221C852.369 524.504 846.552 528.747 840.612 532.84C834.664 536.939 828.593 540.885 822.332 544.553C816.062 548.225 809.599 551.617 802.895 554.586C801.219 555.328 799.531 556.042 797.824 556.728C797.357 556.924 796.38 553.681 795.458 554.082C785.359 558.378 788.198 561.291 785.987 568.865C785.755 569.645 785.469 570.472 785.103 571.354C784.094 573.756 775.014 570.252 774.288 570.011C771.577 569.19 771.038 563.939 770.269 563.914C764.53 563.771 771.34 575.727 766.948 580.159C766.624 580.484 766.237 580.768 765.78 581.001C765.561 581.082 765.084 578.004 764.395 578.025C762.259 578.075 761.05 579.988 758.868 579.913C753.819 579.718 749.265 573.254 745.146 580.04C744.872 580.494 746.043 582.833 746.343 585.294C746.619 587.564 746.142 589.953 743.07 591.007C740.954 591.751 732.978 595.006 728.438 596.302C727.533 596.568 726.768 596.761 726.217 596.855C722.911 597.408 724.063 593.877 723.795 593.838C714.221 593.068 716.845 590.434 710.929 586.356C705.085 582.238 710.423 594.869 709.183 596.871C708.865 597.38 708.164 597.687 707.266 597.847C704.651 598.321 700.4 597.528 699.05 597.062C697.237 596.438 698.568 594.094 697.063 593.883C687.133 592.484 695.079 601.527 692.747 604.456C691.527 605.98 690.168 606.765 688.735 607.066C683.652 608.136 677.655 603.18 672.55 603.703C670.774 603.885 672.747 605.761 671.276 606.363C670.087 606.842 668.961 607.132 667.864 607.331C663.57 608.107 659.785 607.47 654.871 611.064C654.186 611.564 652.08 615.083 649.34 616.207C648.031 616.742 646.571 616.735 645.065 615.614C644.4 615.107 645.273 612.31 642.542 612.365C638.466 612.451 631.317 613.412 627.276 615.057C624.28 616.278 628.662 619.669 624.468 619.161C622.617 618.924 625.384 615.922 621.959 615.672C618.554 615.431 610.287 616.982 607.13 617.571C603.993 618.171 606.222 621.006 606.003 621.258C605.724 621.557 605.254 621.901 604.678 622.258C602.464 623.633 598.67 625.188 598.246 625.248C585.445 627.383 572.97 627.938 560.669 628.54C546.9 629.213 533.294 629.935 519.669 632.935C517.647 633.378 519.509 636.463 519.205 636.564C518.481 636.826 517.883 636.95 517.385 636.96C513.228 637.051 516.025 629.181 511.23 627.26C512.999 633.824 509.923 633.061 505.133 634.619C502.83 635.378 504.559 637.738 504.388 638.039C501.586 642.549 498.286 637.932 497.463 637.013C494.451 633.633 492.773 638.592 490.722 636.358C488.656 634.149 491.587 629.708 486.864 630.678C486.021 633.311 490.707 638.827 487.374 640.532C483.903 642.321 479.441 643.66 474.595 644.771C461.966 647.587 446.586 649.307 439.045 651.554C436.342 652.333 434.136 653.051 432.246 653.7C426.879 655.56 424.025 656.797 419.491 658.017C408.451 661.173 414.192 663.771 409.016 668.648C403.953 673.635 401.416 661.994 399.352 660.26C397.256 658.561 397.486 661.331 395.705 660.75C393.913 660.178 395.53 657.366 392.621 658.381C391.288 658.851 389.512 660.769 388.064 663.002C386.369 665.629 385.075 668.667 385.307 670.167C386.222 676.033 392.31 679.084 384.589 681.391C384.142 681.523 383.815 678.17 382.18 678.806C380.355 679.532 378.543 680.308 376.745 681.119C370.971 683.724 365.324 686.705 359.687 689.675C354.634 692.338 349.589 694.991 344.457 697.361C342.715 698.161 342.275 694.41 341.24 694.845C340.989 694.95 340.749 695.054 340.517 695.156C330.748 699.516 336.979 702.078 335.32 710.616C332.513 704.408 328.275 701.659 322.964 703.294C321.627 703.705 320.225 704.395 318.763 705.377C314.395 708.312 317.217 710.838 315.883 714.891C315.486 716.109 310.999 716.134 311.426 717.94C312.113 720.875 314.057 723.146 314.757 725.06C315.467 726.999 314.903 728.566 310.48 730.096C310.089 730.223 309.352 726.969 308.129 727.591C302.821 730.284 302.217 733.627 300.171 737.359C299.157 739.198 297.807 741.123 295.371 743.123C292.182 745.742 286.838 748.331 281.468 750.877C277.086 752.954 272.69 755.003 269.439 757C264.764 750.169 260.127 754.245 259.849 760.188C259.809 761.039 259.858 761.927 260.008 762.826C255.402 765.829 250.846 769.626 246.062 772.068C244.416 772.912 243.738 770.001 243.377 769.902C240.923 769.201 239.899 770.058 239.464 771.315C238.903 772.935 239.318 775.219 238.872 775.733C234.029 781.085 228.484 784.292 223.372 788.049C219.25 791.081 215.406 794.476 212.588 799.578C212.362 799.991 216.066 805.452 210.499 803.885C210.12 803.774 211.253 798.883 206.739 802.425C206.516 802.601 206.278 802.78 206.027 802.961C201.371 806.293 192.233 810.583 188.385 817.509C188.385 817.509 188.385 817.509 188.385 817.509C188.25 817.751 188.122 817.996 188.001 818.243C187.058 820.125 187.269 827.27 181.587 827C180.82 826.957 179.911 825.211 178.639 824.988C178.462 824.959 178.3 824.941 178.151 824.934C174.848 824.799 178.027 829.877 172.27 828.009C169.356 827.074 166.147 826.913 163.28 827.998C160.22 829.153 157.547 831.739 156.163 836.226C156.11 836.38 156.926 838.077 157.313 839.839C157.601 841.159 157.65 842.513 156.897 843.301C154.961 845.32 152.172 847.671 149.747 850.031C148.649 851.1 147.625 852.167 146.786 853.195C145.502 854.778 148.855 855.851 148.676 856.162C147.346 858.306 146 860.257 144.625 862.084C142.022 865.546 139.334 868.534 136.47 871.603C136.47 871.603 136.47 871.603 136.47 871.603C134.006 874.241 131.571 876.917 129.081 880.096C127.739 881.809 126.398 883.648 125.07 885.656C124.534 886.462 124.23 888.135 123.839 890.078C123.134 893.531 122.18 897.828 118.733 899.878C118.635 899.937 118.535 899.991 118.433 900.041C112.657 902.913 101.496 892.424 98.9351 903.65C98.8415 904.064 98.7602 904.508 98.6918 904.983C98.2611 907.912 102.691 913.47 104.605 918.69C106.228 923.061 106.014 927.295 99.8192 928.871C99.8192 928.871 99.8192 928.871 99.8192 928.871C99.7781 928.882 99.7368 928.892 99.6952 928.903C94.7098 942.569 85.8908 953.272 79.8358 965.998C78.1244 969.596 76.6364 973.353 75.5262 977.375C75.296 978.196 79.1845 983.105 78.2405 984.815C76.8275 987.353 73.7401 987.594 72.6586 989.376C69.3659 994.711 67.6882 1000.42 65.5524 1005.95C64.7115 1008.13 63.7994 1010.28 62.6885 1012.37C61.2026 1015.18 59.2009 1013 57.433 1016.37C55.6712 1019.74 57.8687 1023.56 54.1221 1027.49C51.2851 1030.45 42.9387 1030.91 40.0112 1035.3C44.4469 1037.45 45.1522 1039.6 44.8978 1042.78C44.776 1044.31 44.4335 1046.07 44.1791 1048.19C44.032 1049.45 46.877 1049.29 46.9273 1049.94C47.1866 1052.59 44.3975 1053.71 44.8227 1056.31C44.9224 1056.93 47.196 1057.95 47.4074 1058.52C49.291 1063.37 41.7496 1066.8 40.4396 1067.4C35.4541 1069.69 37.7139 1072.69 35.1819 1075C32.6516 1077.32 32.7346 1072.33 30.5342 1075.35C29.2887 1077.07 28.1415 1079 27.0752 1081.05C24.2401 1086.49 21.9908 1092.75 19.9278 1097.93C18.8103 1100.77 22.6598 1100 22.5718 1100.44C21.1216 1106.62 15.6023 1111.41 20.6488 1116.94C9.19446 1115.84 12.7746 1117.96 14.9558 1121.55C16.1224 1123.48 16.889 1125.83 14.7409 1128.4C14.2507 1128.97 6.29435 1127.22 6.06677 1124.23C5.94419 1122.6 7.01052 1120.93 7.92965 1119.07C8.69488 1117.53 9.35824 1115.85 9.15184 1113.94C9.0393 1112.95 3.68636 1105.47 3.5091 1104.64C2.07659 1098.14 13.6939 1101.65 14.4138 1101.61C22.2774 1101.05 16.8949 1092.27 16.9849 1090.5C17.1926 1085.74 18.6854 1081.9 20.0123 1078.2C20.9287 1075.65 21.7668 1073.16 22.0621 1070.47C22.5503 1066.16 15.3983 1062.73 16.9002 1059.77C21.9273 1049.93 33.5586 1050.91 28.9608 1037.63C28.4834 1036.22 26.0989 1035.14 24.9416 1033.86C23.7537 1032.55 23.8608 1031.03 28.662 1028.78C29.2608 1028.5 37.3577 1025.74 35.2025 1021.01C34.9302 1020.42 32.6333 1019.37 32.6775 1018.77C33.021 1014.77 35.9084 1013.33 36.7881 1009.2C37.669 1005.07 38.5036 999.982 41.3158 996.124C41.6423 995.674 42.123 995.266 42.6976 994.895C45.0976 993.345 49.1346 992.457 50.4463 991.889C55.0926 989.929 52.0197 983.87 56.6669 983.538C61.335 983.212 64.7713 990.068 69.8603 985.692C64.0941 982.563 58.3076 979.086 52.5744 975.807C55.853 969.508 59.591 963.518 63.2763 957.506C66.7002 951.921 70.0777 946.319 73.011 940.416C73.7617 938.891 69.8326 938.795 70.5586 937.116C73.4765 930.414 78.4331 925.802 81.3655 919.018C81.3655 919.018 81.3655 919.018 81.3655 919.018C81.5191 918.657 81.663 918.292 81.7958 917.924C82.785 915.136 82.9588 911.958 83.254 908.499C83.493 905.509 83.7544 902.446 84.5661 899.618C85.9457 899.563 87.142 899.256 88.1951 898.751C91.6738 897.087 93.5864 893.25 95.4121 889.263C96.4006 887.104 97.3654 884.904 98.5113 883.026C99.8823 880.781 101.602 881.831 103.027 880.464C103.293 880.207 103.528 879.962 103.735 879.729C107.732 875.278 101.058 875.021 101.078 872.874C101.187 868.731 103.783 867.456 107 866.836C111.426 865.984 116.966 866.254 120.203 861.325C120.278 861.214 120.154 860.487 119.932 859.458C119.932 859.458 119.932 859.458 119.932 859.458C119.196 856.571 117.749 850.962 117.864 850.204C118.623 843.874 120.627 851.166 123.164 848.85C123.935 848.152 124.692 847.516 125.434 846.904C128.881 844.065 131.921 841.8 134.25 836.869C134.44 836.468 134.625 836.05 134.807 835.611C135.619 833.584 135.22 826.446 140.841 825.992C141.576 825.933 143.337 827.927 143.739 827.714C143.785 827.688 143.83 827.663 143.874 827.637C150.779 823.688 144.948 817.944 146.023 812.76C146.103 812.379 146.226 812.021 146.385 811.684C148.414 807.395 156.263 806.69 158.245 806.896C163.83 807.397 157.549 810.146 157.71 810.593C159.307 814.919 161.589 812.723 164.047 810.544C164.522 810.122 165.002 809.702 165.485 809.327C171.555 814.777 174.934 810.855 168.566 806.915C167.858 806.494 166.284 809.066 165.485 809.327C162.979 803.173 164.639 798.772 169.897 797.711C169.897 797.711 169.897 797.711 169.897 797.711C171.466 797.392 173.374 797.352 175.609 797.626C180.187 798.194 180.831 803.075 186.534 795.954C189.138 792.747 184.24 789.588 185.972 786.041C186.613 784.736 187.451 783.567 188.442 782.49C193.599 776.876 202.607 774.074 207.734 769.098C207.838 768.997 207.928 768.899 208.005 768.805C209.572 766.889 205.762 766.341 207.155 764.854C211.046 760.701 216.362 759.488 220.103 755.149C220.441 754.752 217.501 752.951 218.869 751.858C220.121 750.849 221.376 749.887 222.634 748.962C229.129 744.192 235.702 740.402 242.467 736.122C245.223 734.379 248.012 732.555 250.843 730.553C253.691 728.536 257.433 725.278 261.174 722.133C264.496 719.34 267.818 716.634 270.514 714.943C273.575 713.017 277.054 711.272 280.633 709.573C286.661 706.705 293.029 703.969 298.049 700.877C299.758 699.824 301.314 698.728 302.661 697.56C307.681 693.237 304.678 691.403 305.783 687.997C306.415 686.039 307.95 684.737 309.838 683.886C314.303 681.869 320.731 682.387 321.949 682.57C322.002 682.579 317.704 686.369 321.14 686.054C324.513 687.934 321.903 682.619 321.949 682.57C322.625 682.663 326.396 680.681 329.67 678.707C331.89 677.368 333.881 676.03 334.509 675.323C335.352 674.371 333.113 672.196 333.585 671.747C336.619 668.892 339.75 666.162 342.982 663.565C348.06 659.484 353.386 655.731 358.977 652.326C363.051 649.846 367.254 647.558 371.646 645.442C371.914 645.354 373.304 648.492 373.91 648.249C375.486 647.634 376.864 646.915 378.088 646.119C383.707 642.494 386.82 637.243 392.033 632.4C398.546 626.428 404.857 624.643 411.428 628.264C414.216 626.697 418.056 625.78 421.785 625.295C425.087 624.862 428.304 624.761 430.685 624.735C435.738 624.698 434.363 618.205 434.738 617.941C445.808 610.283 454.166 611.475 466.492 609.435C467.075 609.34 467.668 609.24 468.272 609.131C474.637 607.953 486.921 604.531 493.582 602.649C498.845 601.126 502.329 602.124 507.078 600.357C507.722 600.12 506.586 597.31 506.771 597.166C511.728 592.809 510.194 600.36 511.523 601.456C511.672 601.58 511.819 601.702 511.964 601.823C516.502 605.588 519.385 607.452 525.788 604.376C527.305 603.647 530.527 592.7 533.368 591.7C537.052 590.419 536.126 594.304 539.956 592.878C540.284 592.759 539.909 590.49 542.357 590.265C546.629 589.862 551.038 589.576 555.484 589.28C562.853 588.789 570.323 588.267 577.416 587.13C578.969 586.89 576.469 583.559 578.701 583.152C584.952 582.01 591.519 580.984 597.954 580.317C602.278 579.871 606.554 579.585 610.645 579.549C613.153 579.534 612.086 582.321 612.749 582.971C616.871 586.889 620.165 579.457 620.834 579.191C627.06 576.74 632.973 575.525 639.084 574.468C645.658 573.309 652.062 572.568 658.641 571.053C662.813 570.091 667.038 568.822 671.348 566.941C671.874 566.705 673.861 563.91 676.335 562.239C678.382 560.859 680.761 560.243 683.049 562.468C683.377 562.799 688.494 567.848 690.202 562.857C690.301 562.546 687.332 560.074 690.993 559.31C692.122 559.072 693.385 558.542 694.759 557.973C697.842 556.7 701.446 555.238 705.535 556.428C707.082 556.882 711.287 560.19 714.278 557.598C714.873 557.08 715.416 556.326 715.867 555.269C716.126 554.821 718.693 541.765 723.917 547.995C724.773 549.017 727.541 556.818 731.094 550.714C731.167 550.584 731.201 550.458 731.207 550.332C731.25 549.322 729.488 548.385 731.354 546.457C734.641 543.084 740.32 542.87 743.474 537.156C743.61 536.906 743.777 536.299 744.028 535.558C744.817 533.304 746.217 529.9 749.72 531.625C750.458 531.98 750.952 534.838 752.531 534.33C756.063 533.197 759.495 531.214 762.843 529.214C766.625 526.957 770.412 524.62 774.691 523.141C777.555 522.139 778.627 526.71 781.906 526.046C782.584 525.907 783.377 525.692 784.223 525.405C787.465 524.312 791.486 522.143 792.776 519.35C794.394 515.833 787.489 511.938 791.236 508.743C792.622 507.557 794.03 506.405 795.461 505.281C800.848 501.048 806.538 497.215 812.382 493.509C818.234 489.797 824.235 486.216 830.217 482.5C835.287 479.351 840.332 476.114 845.256 472.623C847.369 471.126 845.531 470.567 846.518 468.963C846.518 468.962 846.518 468.963 846.518 468.963C846.776 468.534 847.239 468.031 848.033 467.416C857.371 460.219 869.451 448.954 881.153 439.933C886.666 435.712 891.99 432.142 896.726 430.148C908.509 425.124 899.575 437.869 907.563 432.855C911.432 430.397 909.292 421.08 909.885 420.156C912.227 416.457 914.879 413.841 917.614 411.537C921.654 408.131 925.879 405.408 929.445 400.905C930.677 399.345 926.951 398.355 928.023 397.055C931.66 392.597 936.961 389.343 940.622 385.211C942.258 383.352 940.117 381.898 941.845 380.407C943.854 378.654 945.865 377.106 948.029 375.726C950.299 374.279 952.736 373.016 955.515 371.892C956.01 371.692 956.011 376.259 958.913 373.414C963.601 368.804 970.965 364.513 974.466 357.324C975.498 355.184 971.347 351.101 977.615 350.357C978.928 350.198 983.082 355.97 982.634 347.693C982.612 347.222 982.677 345.463 983.053 343.353C983.78 339.262 985.685 333.846 990.338 334.002C992.196 334.062 998.515 335.74 999.77 333.141C999.925 332.774 996.637 331.679 997.997 329.828C1002.83 323.341 1008.95 317.516 1014.09 310.906C1015.45 309.135 1010.82 309.223 1012.94 306.654C1013.21 306.334 1013.48 306.013 1013.75 305.691C1019.56 298.892 1027.76 291.857 1034.69 286.487C1037.35 284.425 1037.55 287.968 1037.93 288.006C1044.02 288.709 1041.25 282.501 1041.93 281.33C1044.3 277.357 1047.34 274.994 1050.39 272.746C1050.39 272.746 1050.39 272.746 1050.39 272.746C1052.85 270.929 1055.38 269.145 1057.62 266.609C1059.02 265.05 1055.87 263.79 1055.99 263.31C1057.39 258.441 1058.71 264.652 1061.12 263.285C1063.94 261.699 1066.65 259.777 1069.25 257.692C1072.86 254.801 1076.26 251.598 1079.46 248.552C1081.48 246.623 1076.8 245.978 1078.64 244.276C1080.63 242.431 1082.66 240.606 1084.72 238.811C1090.77 233.555 1097.14 228.555 1103.69 224.046C1107.18 221.644 1110.72 219.382 1114.29 217.292C1116.65 215.914 1116.99 219.115 1117.82 219.258C1122.56 220.121 1123.96 214.696 1124.72 212.077C1124.88 211.53 1125 211.106 1125.12 210.89C1128.3 205.212 1131.62 205.735 1135.56 202.223C1137.82 200.206 1140.19 198.191 1142.65 196.185C1148.58 191.333 1155.19 186.422 1161.75 181.855C1161.75 181.855 1161.75 181.855 1161.75 181.855C1165.44 179.277 1168.35 177.162 1171.95 174.431C1175.49 171.749 1179.08 168.933 1182.64 166.072C1186.44 163.024 1190.22 159.927 1193.9 156.905C1194.52 156.395 1195.13 155.888 1195.75 155.383C1199.11 152.608 1202.49 149.876 1205.89 147.202C1210.16 143.842 1214.49 140.572 1218.91 137.401C1223.36 134.209 1228.53 130.679 1233.08 127.845C1242.79 121.76 1253.93 115.417 1264.68 109.606C1267.37 108.152 1270.09 106.695 1272.86 105.22C1274.66 104.271 1271.19 101.952 1272.74 101.09C1280.14 97.0328 1287.72 93.5574 1295.32 90.3989C1306.28 85.8417 1317.28 81.9352 1328.09 77.7827C1330.07 77.022 1332.04 76.2529 1334.01 75.4695C1335.67 74.8184 1332.13 72.3953 1334.76 71.2409C1340.15 68.8496 1347.21 66.7286 1353.08 66.0005C1355.93 65.6394 1353.22 69.6072 1356.07 69.1887C1357.64 68.9613 1359.22 68.6837 1360.79 68.3594C1365.88 67.3086 1370.95 65.7673 1375.68 63.8452C1378.31 62.7679 1373.18 60.6878 1376.69 59.5503C1381.53 57.9609 1386.31 56.3782 1391.05 54.8275C1401.42 51.4353 1411.15 48.3402 1421.5 45.4567C1430.12 43.0333 1439.17 40.9461 1448.42 39.5708C1450.21 39.3049 1453.93 45.5966 1457.07 43.1189C1456.73 41.1459 1455.98 38.9337 1455.44 36.8806C1456.25 36.5869 1457.06 36.2957 1457.88 36.0068C1469.75 31.7912 1481.84 28.105 1494.1 24.8215C1506.38 21.5341 1518.84 18.6506 1531.44 16.0523C1542.81 13.7095 1554.3 11.5984 1565.93 9.63873C1567.54 9.3669 1564.08 6.13413 1567.22 5.5897C1567.8 5.4913 1568.37 5.39276 1568.94 5.29429C1581.89 3.06428 1594.76 0.831728 1608.2 0.797293C1613.01 0.786613 1617.89 1.06145 1622.84 1.73044C1624.77 1.99288 1624.13 8.67662 1629.69 7.40577C1630.67 7.15384 1639.14 5.9912 1641.25 4.54177C1641.54 4.32007 1639.98 1.23061 1642.68 1.10398C1644.53 1.02651 1646.37 0.978855 1648.2 0.960364C1652.62 0.912225 1657.05 0.953078 1661.61 1.10477C1666.15 1.2559 1670.74 1.51725 1675.35 1.91154C1679.52 2.2683 1683.71 2.73409 1687.87 3.32409C1690.27 3.67334 1687.73 6.8346 1689.3 7.20981C1689.33 7.21627 1689.35 7.2219 1689.38 7.2267C1693.94 7.96242 1698.68 8.16151 1703.49 8.34728C1708.3 8.53272 1713.18 8.70636 1717.93 9.37753C1721.27 9.84876 1724.49 10.5571 1727.69 11.6906C1730.08 12.5512 1731.34 13.6345 1732.11 14.8788C1732.11 14.8788 1732.11 14.8788 1732.11 14.8788C1732.7 15.4172 1733.34 16.0218 1733.69 16.6195C1734.31 17.5738 1734.66 18.5747 1734.97 19.6272C1735.27 20.6861 1735.55 21.7942 1736.02 23.0138C1736.33 23.7898 1736.71 24.6075 1737.27 25.5376C1737.66 26.1907 1738.14 26.8935 1738.76 27.7477C1738.81 27.8063 1738.85 27.8657 1738.89 27.9258C1739.04 28.1888 1739.98 28.8413 1740.91 29.7449C1740.91 29.7449 1740.91 29.7449 1740.91 29.7449C1741.39 30.2491 1742.65 31.6085 1743.15 32.5073C1743.71 33.4113 1744.14 34.3438 1744.41 35.2194C1744.71 36.2256 1744.81 37.1577 1744.7 37.9208C1744.57 38.7853 1744.18 39.4289 1743.52 39.7629C1738.8 42.0047 1733.24 42.8713 1728.15 45.1935C1725.24 46.414 1722.44 47.9186 1719.48 49.0046C1719.39 49.0382 1719.3 49.0713 1719.21 49.1039C1718.69 49.2866 1718.32 48.9951 1718.06 48.623C1717.89 48.3862 1717.76 48.1091 1717.6 47.8119C1717.18 46.9598 1716.49 45.5388 1714.36 48.2776C1714.34 48.3044 1714.32 48.3629 1714.29 48.4478C1714.21 48.7213 1714.11 49.2294 1714.03 49.8718C1713.99 50.309 1713.96 50.8195 1713.98 51.4233C1714.01 52.0014 1714.09 52.671 1714.26 53.416C1714.45 54.2913 1714.8 55.2808 1715.17 56.188C1715.37 56.7026 1715.58 57.1845 1715.73 57.5857C1717.25 60.4322 1711 59.0487 1714.35 63.8906C1714.35 63.8906 1714.35 63.8906 1714.35 63.8906C1714.44 64.0253 1714.59 64.2002 1714.82 64.4328C1716.29 65.752 1717.47 66.5442 1718.35 67.0582C1719.42 67.6746 1720.31 68.0197 1721.06 68.2359C1721.76 68.4353 1722.35 68.5189 1722.85 68.557C1723.3 68.5916 1723.69 68.5865 1724.01 68.5838C1724.31 68.5813 1724.56 68.5804 1724.79 68.6101C1724.91 68.6262 1725.36 68.7167 1725.37 68.7916C1725.37 68.7916 1725.37 68.7916 1725.37 68.7916C1725.06 68.8342 1724.75 68.9307 1724.41 69.0995C1721.83 70.4454 1722.38 74.3037 1717.93 74.304ZM453.212 625.232C458.199 627.194 455.905 615.739 452.004 619.665C451.818 619.869 452.954 625.14 453.212 625.232ZM74.7367 956.797C81.8252 954.283 76.8541 947.46 71.5361 949.073C66.2182 950.701 72.5813 957.575 74.7367 956.797ZM52.6996 1009.52C59.1244 1005.49 44.6681 997.387 44.6887 1005.09C44.6853 1005.53 52.3252 1009.76 52.6996 1009.52ZM1715.84 25.6474C1715.85 25.6957 1716.18 25.7675 1716.64 25.8412C1717.67 26.0087 1719.37 26.195 1719.44 26.0943C1720.85 23.8041 1718.41 22.6131 1716.85 23.1651C1716 23.4619 1715.42 24.2615 1715.84 25.6474ZM33.1708 1062.74C36.0061 1061.77 35.907 1055.46 32.3691 1056.65C29.5135 1057.61 29.6316 1063.95 33.1708 1062.74ZM670.954 598.235C671.061 598.388 673.444 597.93 673.149 596.991C672.189 593.972 669.165 595.679 670.954 598.235ZM0.219573 1152.94C5.03961 1139.47 20.7127 1135.78 14.5551 1149.77C13.4487 1152.32 12.2124 1142.77 9.96939 1145.74C5.85782 1151.26 12.8002 1157.85 6.53006 1162.82C5.37101 1163.75 -0.10011 1153.71 0.208759 1152.91C0.212359 1152.92 0.215974 1152.93 0.219573 1152.94ZM459.206 638.131C459.325 638.255 462.607 637.555 462.649 637.391C463.512 633.34 456.828 634.764 459.206 638.131ZM803.774 549.151C804.117 549.336 810.855 545.275 810.893 544.871C810.929 537.606 797.437 545.716 803.774 549.151ZM269.184 756.872C268.5 761.249 266.042 763.989 262.193 763.434C261.513 763.335 260.789 763.134 260.025 762.82C260.42 762.573 260.815 762.323 261.208 762.071C263.873 760.362 266.485 758.554 269.184 756.872ZM1730.84 1321.04C1730.46 1317.88 1730.43 1314.45 1730.67 1311.04C1731.11 1304.67 1732.48 1298.44 1733.98 1293.56C1734.7 1291.21 1736.62 1292.66 1737.21 1291.07C1737.49 1290.34 1737.66 1289.61 1737.79 1288.89C1738.18 1286.58 1738.04 1284.3 1739.06 1282.11C1739.51 1281.16 1742.6 1282.8 1743 1281.8C1744.65 1277.62 1744.95 1273.56 1745.6 1269.53C1745.8 1268.3 1746.02 1267.07 1746.33 1265.84C1747.58 1260.87 1748.65 1256.07 1749.47 1251.41C1750.5 1245.59 1751.15 1239.98 1751.31 1234.62C1751.41 1228.9 1751.32 1224.99 1750.3 1219.26C1750.3 1219.26 1750.3 1219.26 1750.3 1219.26C1749.13 1213.42 1747.99 1210.01 1745.25 1204.48C1744.64 1203.28 1743.99 1202.09 1743.29 1200.88C1741.23 1197.32 1739.09 1192.85 1736.18 1188.64C1733.93 1185.36 1731.25 1182.28 1728.11 1180.06C1727.27 1179.47 1725.72 1181.97 1725.42 1182C1720.77 1182.6 1725.47 1179.05 1724.52 1177.13C1723.97 1176.03 1723.35 1174.96 1722.67 1173.92C1718.79 1167.95 1713 1163.11 1707.14 1159.63C1706.96 1159.52 1706.79 1159.42 1706.61 1159.31C1703.59 1157.58 1702.82 1164.21 1702.04 1159.55C1701.98 1159.23 1704.55 1157.35 1703.99 1156.51C1702.73 1154.62 1699.11 1152.54 1697.91 1151.33C1695.58 1148.97 1695.14 1148.67 1692.66 1146.76C1692 1146.24 1691.34 1145.65 1690.68 1145.03C1688 1142.5 1685.29 1139.35 1681.96 1137.47C1681.05 1136.96 1680.21 1140.27 1678.58 1139.68C1676.96 1139.1 1673.65 1136.13 1673 1134.64C1672.33 1133.14 1674.38 1131.64 1674.54 1131.04C1674.83 1130.01 1674.72 1129.28 1674.37 1128.77C1674.37 1128.77 1674.37 1128.77 1674.37 1128.77C1673.05 1126.8 1668.01 1128.07 1667.56 1127.88C1663.75 1126.08 1660.67 1123.75 1657.89 1121.22C1653.56 1117.29 1649.92 1112.85 1645.35 1109.25C1644.99 1108.96 1644.61 1108.67 1644.23 1108.39C1640.08 1105.37 1635.38 1102.77 1630.96 1100.25C1628.8 1099.02 1626.7 1097.8 1624.76 1096.54C1621.99 1094.74 1619.49 1092.92 1617.01 1091.15C1613.15 1088.42 1609.34 1085.83 1604.8 1083.93C1604.02 1083.6 1603.38 1087.35 1602.44 1086.96C1602.02 1086.79 1601.6 1086.62 1601.17 1086.45C1596.08 1084.38 1591.65 1082.6 1586.45 1080.44C1586.45 1080.44 1586.45 1080.44 1586.45 1080.44C1581.46 1078.4 1576.65 1076.22 1571.96 1073.75C1570.94 1073.21 1573.22 1070.48 1572.24 1069.75C1566.37 1065.34 1556.31 1056.53 1549.42 1069.53C1548.01 1069.07 1546.49 1068.59 1544.96 1068.06C1541.58 1066.87 1538.14 1065.39 1535.53 1062.99C1533.07 1060.75 1536.29 1057.7 1532.66 1058.65C1531.84 1058.87 1532.37 1062.06 1531.19 1062.16C1526.24 1062.55 1521.1 1060.87 1516.14 1061.92C1515.14 1062.14 1515.1 1064.91 1514.77 1065.38C1512.07 1069.13 1508.93 1062.13 1508.12 1061.57C1505.9 1060.03 1503.83 1059.21 1501.82 1058.75C1498.31 1057.96 1494.99 1058.28 1491.17 1058.01C1489.77 1057.91 1491.21 1061.7 1489.87 1061.74C1482.92 1061.89 1475.76 1061.32 1468.96 1059.57C1467.44 1059.18 1468.89 1056.04 1468.16 1055.69C1464.94 1054.18 1464.18 1060.14 1461.12 1058.84C1460.47 1058.58 1460.84 1055.87 1460.72 1055.58C1459.32 1052.07 1458.05 1054.93 1457.31 1056.64C1457.07 1057.2 1456.88 1057.64 1456.76 1057.67C1450.76 1059.7 1446.76 1052.88 1440.88 1054.02C1440.18 1054.16 1441.86 1057.54 1439.89 1057.74C1430.98 1058.65 1421.7 1058.89 1412.49 1058.42C1408.17 1058.2 1403.86 1057.83 1399.63 1057.29C1397.56 1057.04 1398.8 1054.36 1398.65 1054.05C1396.15 1049.29 1395.34 1056.02 1394.71 1056.32C1389.65 1058.56 1384.22 1053.48 1381.44 1061.7C1376.77 1061.58 1372.14 1061.8 1367.52 1062.19C1352.42 1063.46 1337.61 1066.49 1322.16 1065.28C1319.64 1065.09 1317.09 1064.77 1314.52 1064.3C1314.23 1064.25 1314.34 1060.94 1313.76 1060.86C1306.71 1059.83 1308.61 1064.72 1304.64 1071.37C1303.63 1073.05 1299.4 1065.91 1299.06 1065.39C1297.75 1063.47 1298.48 1058.53 1298.07 1058.17C1295.81 1056.29 1295.95 1062.94 1294.96 1067.58C1294.48 1069.82 1293.74 1071.59 1292.35 1071.7C1292.22 1071.68 1292.55 1068.69 1292.17 1068.42C1291 1067.59 1289.99 1068.84 1288.84 1067.9C1286.2 1065.73 1284.84 1057.99 1281.4 1062.76C1280.96 1063.37 1282.23 1072.44 1278.41 1072.22C1276.89 1072.13 1270.19 1072.59 1268.3 1072.06C1268.12 1072.01 1267.98 1071.94 1267.85 1071.85C1266.61 1071.01 1267.58 1068.54 1267.45 1068.43C1262.32 1064.71 1264.17 1063.03 1261.54 1057.35C1258.95 1051.68 1259.94 1065.33 1258.95 1066.87C1257.95 1068.42 1254.23 1065.27 1253.32 1064.16C1252.42 1063.06 1253.51 1061.18 1252.71 1060.56C1247.44 1056.47 1250.45 1067.36 1248.71 1069.54C1245.69 1073.29 1243.14 1068.91 1240.58 1065.86C1239.62 1064.72 1238.65 1063.76 1237.64 1063.48C1236.63 1063.2 1237.42 1065.52 1236.51 1065.72C1232.89 1066.48 1230.82 1063.27 1226.65 1066.04C1225.98 1066.49 1222.42 1072.47 1220.44 1067.9C1220.17 1067.25 1221.13 1064.76 1219.63 1064.13C1218.12 1063.49 1215.79 1062.95 1213.66 1062.86C1212.63 1062.83 1211.64 1062.9 1210.82 1063.13C1208.97 1063.65 1210.81 1067.92 1208.6 1066.5C1207.62 1065.86 1209.64 1063.54 1207.79 1062.55C1205.96 1061.56 1201.13 1061.33 1199.29 1061.27C1197.46 1061.22 1198.22 1064.45 1198.06 1064.65C1197.07 1065.8 1193.4 1067.03 1193.09 1067C1190.79 1066.86 1188.53 1066.6 1186.3 1066.24C1177.17 1064.79 1168.5 1061.83 1159.75 1060.04C1155.9 1059.25 1151.98 1058.63 1147.89 1058.38C1146.65 1058.3 1146.89 1061.73 1146.69 1061.75C1142.27 1062.37 1147.12 1054.25 1144.83 1050.81C1143.99 1057.53 1142.54 1056.02 1139.51 1056.16C1138.05 1056.23 1138.27 1058.95 1138.09 1059.18C1136.13 1061.53 1135.31 1059.82 1134.96 1058.14C1134.79 1057.34 1134.73 1056.55 1134.68 1056.19C1134.16 1052.12 1131.69 1056.24 1131.35 1053.51C1131.03 1050.8 1133.97 1047.59 1131.28 1047C1129.95 1049.17 1130.51 1055.81 1128.18 1056.3C1123.17 1057.35 1116.58 1054.93 1110.89 1052.07C1106.54 1049.9 1102.69 1047.51 1100.11 1046.39C1094.17 1043.78 1092.07 1043.45 1088.86 1041.3C1088.77 1041.24 1088.68 1041.18 1088.59 1041.12C1083.13 1037.54 1083.65 1042.65 1078.97 1043.04C1074.19 1043.4 1080.54 1033.53 1080.92 1031.01C1081.33 1028.49 1079.76 1030.6 1079.62 1029.06C1079.48 1027.53 1081.57 1026.58 1080.21 1025.45C1078.87 1024.33 1072.86 1026.53 1071.24 1028.64C1067.89 1033.07 1067.46 1039.1 1064.21 1035.72C1064.16 1035.66 1064.11 1035.61 1064.05 1035.55C1063.86 1035.33 1065.89 1032.92 1065.1 1032.22C1058.9 1026.92 1051.71 1023.23 1045.63 1018.01C1045.49 1017.88 1045.34 1017.75 1045.19 1017.62C1044.34 1016.87 1046.74 1014.3 1046.27 1013.83C1041.38 1008.92 1040.9 1015.06 1034.75 1019C1039.35 1011.9 1039.94 1006.43 1035.58 1004.07C1032.96 1002.64 1031.68 1006.12 1028.74 1007.49C1027.86 1007.9 1027.18 1004.67 1026.02 1006.01C1023.52 1008.87 1022.14 1012.65 1020.53 1013.61C1019.68 1014.11 1018.77 1013.83 1017.61 1012.21C1017.47 1012 1019.58 1009.63 1018.98 1009.08C1015.11 1005.57 1011.74 1010.46 1006.55 1008.39C1002.48 1006.76 997.534 999.791 993.593 996.818C998.424 988.687 993.367 988.249 988.44 992.916C985.828 991.072 982.681 989.636 980.501 987.284C979.75 986.478 981.751 984.483 981.788 984.161C982.42 979.13 977.979 983.864 977.26 983.723C976.948 983.651 976.644 983.569 976.348 983.48C969.401 981.372 966.626 974.711 958.476 974.984C958.174 974.996 954.375 980.374 955.28 975.294C955.35 974.948 958.912 973.635 956.197 971.686C953.478 969.733 950.011 963.429 944.478 963.558C943.142 963.587 937.907 966.603 938.196 961.864C938.241 961.224 939.523 959.804 939.711 958.683C940.293 955.103 936.106 960.317 937.705 954.657C938.694 951.158 938.818 947.754 937.348 945.858C936.44 944.687 934.925 944.091 932.63 944.4C932.444 944.417 928.704 948.281 927.509 947.429C925.605 946.065 923.384 943.366 921.302 942.092C920.304 941.484 919.192 944.647 918.988 944.589C911.365 941.944 908.196 936.496 901.739 930.948C900.557 929.924 894.439 931.35 893.774 926.781C893.09 922.159 902.709 911.731 897.559 909.548C897.127 909.365 896.592 909.241 895.938 909.183C892.518 908.86 878.554 924.156 879.427 912.315C869.029 909.003 863.393 899.297 852.299 897.111C851.801 897.01 847.626 901.149 846.7 900.519C845.328 899.573 845.871 896.818 844.928 896.069C844.641 895.835 844.347 895.616 844.048 895.411C840.265 892.818 835.623 892.389 831.906 889.923C830.378 888.919 832.277 886.835 830.447 885.637C828.612 884.442 825.595 886.903 823.853 883.954C822.545 881.719 824.11 874.155 821.879 871.976C818.324 878.343 816.601 877.24 812.506 877.249C811.718 877.255 811.19 879.846 810.756 879.964C808.97 880.499 808.858 878.065 807.077 878.74C806.646 878.901 805.481 881.101 805.065 881.358C801.493 883.626 800.956 877.053 800.853 875.907C800.472 871.554 798.035 873.95 797.105 871.849C797.032 871.684 796.984 871.529 796.957 871.382C796.643 869.671 799.254 869.179 797.902 867.589C794.851 864.01 789.658 861.919 785.73 859.929C784.155 859.148 783.815 862.665 783.556 862.623C779.942 861.84 778.081 857.089 773.512 862.281C778.315 845.665 770.844 862.88 767.564 857.672C767.308 857.257 770.09 849.636 772.02 849.191C773.953 848.749 775.105 852.037 777.865 851.259C778.51 851.073 784.4 845.431 784.975 845.193C789.427 843.299 784.702 854.45 784.568 855.12C783.233 862.41 789.991 856.583 791.117 856.501C796.201 856.079 798.803 859.262 802.913 859.258C802.958 859.258 803.003 859.257 803.049 859.253C805.722 859.04 809.416 852.331 810.985 853.397C816.303 857.018 813.08 867.807 822.809 862.118C824.892 860.914 827.862 852.675 828.694 860.852C828.752 861.369 828.765 868.458 832.366 865.939C832.821 865.621 834.026 863.403 834.413 863.374C836.99 863.222 837.295 865.686 839.839 865.998C842.384 866.31 845.585 866.458 847.527 868.541C848.701 869.793 848.193 874.915 848.294 876.299C848.548 880.247 853.258 876.754 852.477 880.832C852.474 880.849 852.47 880.866 852.467 880.883C851.624 885.059 846.261 889.035 848.026 893.073C851.433 887.468 855.076 881.802 858.577 876.21C865.298 880.385 870.876 886.167 877.769 889.991C878.628 890.46 879.595 886.926 880.563 887.352C884.645 889.167 886.632 893.322 891.054 894.862C894.484 896.044 899.749 894.909 903.393 896.065C902.896 897.912 902.878 899.352 903.178 900.512C904.104 904.103 908.082 905.019 910.353 907.052C911.407 907.991 910.265 909.64 910.755 910.719C912.629 914.748 914.672 908.203 916.094 907.863C922.18 906.427 914.51 919.331 919.068 921.764C919.306 921.897 926.397 916.91 927.052 916.735C931.256 915.546 925.976 919.348 927.206 920.823C929.451 923.517 930.39 926.369 934.945 926.473C936.28 926.495 941.25 923.737 941.061 928.177C941.037 928.759 939.491 930.91 939.606 931.166C941.523 935.028 945.194 930.265 948.447 928.236C948.936 927.931 949.416 927.688 949.879 927.545C953.421 926.452 953.52 933.288 953.285 935.092C952.692 939.769 951.025 935.83 950.711 936.128C946.983 939.683 949.745 940.405 951.282 941.867C947.207 948.927 949.936 950.061 952.893 943.355C953.212 942.62 951.438 942.404 951.282 941.867C957.078 936.068 960.312 936.887 959.344 945.088C958.891 948.93 955.407 951.57 960.456 952.955C962.745 953.584 964.958 948.355 967.466 948.112C973.188 947.556 975.49 955.12 979.943 956.871C981.556 957.504 981.736 954.017 982.892 954.359C985.961 955.254 987.098 958.637 990.362 959.225C990.653 959.274 991.687 956.298 992.522 956.605C992.54 956.612 992.558 956.62 992.576 956.629C999.009 960.062 1003.4 965.062 1009.93 968.921C1013.09 970.791 1019.58 972.462 1022.68 974.611C1026.98 977.586 1030.96 983.317 1035.24 986.342C1036.31 987.097 1037.39 987.682 1038.49 988.012C1042.07 989.101 1042.87 985.882 1045.27 984.676C1049.87 982.315 1051.02 991.478 1051.14 992.86C1051.14 992.907 1048.01 992.141 1048.74 994.375C1048.02 997.877 1051.1 992.858 1051.14 992.86C1051.18 993.545 1054.29 995.774 1056.34 996.753C1056.97 997.049 1057.49 997.234 1057.81 997.234C1058.56 997.234 1059.59 994.342 1059.95 994.393C1067.23 995.453 1073.82 997.601 1079.86 1001.02C1080.96 1001.65 1082.05 1002.32 1083.12 1003.03C1083.23 1003.14 1081.65 1006.17 1081.93 1006.4C1085.71 1009.72 1090.17 1007.07 1094.67 1006.22C1097.76 1005.65 1099.89 1006.33 1100.96 1008.85C1101.44 1010 1101.7 1011.53 1101.73 1013.5C1104.72 1013.84 1107.78 1017.68 1109.58 1019.94C1111.39 1022.22 1113.8 1016.02 1114.04 1015.97C1117.34 1015.12 1119.62 1015.52 1121.71 1016.46C1124.39 1017.66 1126.74 1019.74 1130.32 1021.05C1133.19 1022.12 1139.11 1022.69 1142.7 1022.74C1142.89 1022.74 1143.08 1022.74 1143.25 1022.74C1146.02 1022.74 1147.33 1024.59 1149.97 1024.08C1150.33 1024.01 1150.54 1021.05 1150.66 1020.96C1154.01 1017.99 1151.41 1024.84 1151.74 1026.21C1152.94 1031.19 1153.84 1033.89 1157.78 1032.27C1158.72 1031.91 1162.58 1021.97 1164.2 1021.57C1164.46 1021.51 1164.67 1021.51 1164.85 1021.56C1166.11 1021.91 1165.38 1024.6 1167.4 1024.06C1167.59 1024.01 1167.85 1021.73 1169.17 1022C1175.25 1023.21 1181.7 1025.28 1188.17 1025.67C1189.05 1025.73 1188.28 1021.99 1189.54 1022.02C1189.84 1022.03 1190.13 1022.03 1190.43 1022.04C1196.11 1022.22 1202.18 1022.91 1207.54 1024.88C1208.93 1025.41 1207.88 1027.9 1208.14 1028.67C1209.76 1033.37 1212.86 1026.88 1213.3 1026.78C1214.08 1026.59 1214.84 1026.45 1215.59 1026.34C1224.57 1025.1 1231.75 1029.66 1240.96 1028.05C1241.53 1027.95 1242.11 1027.83 1242.69 1027.67C1243.3 1027.51 1247.76 1020.39 1249.78 1026.5C1249.91 1026.9 1251.96 1033.16 1253.68 1028.85C1253.78 1028.58 1252.51 1025.37 1254.67 1025.67C1256.83 1025.97 1260.22 1023.75 1263.28 1027.2C1263.87 1027.87 1265.01 1030.45 1266.42 1031.17C1267.31 1031.63 1268.31 1031.35 1269.32 1029.38C1269.52 1029.02 1273.27 1017.58 1275.17 1025.26C1275.49 1026.52 1275.66 1034.76 1278.79 1030.36C1279.38 1029.5 1278.12 1027.74 1279.72 1026.5C1282.17 1024.58 1285.72 1026.55 1288.58 1022.65C1288.89 1022.21 1289.77 1019.71 1290.92 1019.02C1291.57 1018.62 1292.32 1018.8 1293.12 1020.27C1293.47 1020.91 1293.16 1023.69 1294.17 1023.91C1299 1024.97 1303.71 1022.63 1308.55 1023.98C1310.3 1024.44 1309.98 1028.95 1311.91 1029.92C1313.3 1030.61 1315.66 1031.15 1317.49 1030.54C1318.21 1030.3 1318.85 1029.89 1319.32 1029.26C1321.01 1026.99 1317.93 1020.26 1320.79 1019.3C1333.3 1015.16 1346.75 1017.66 1359.78 1016.82C1361.61 1016.7 1360.03 1014.61 1362.24 1014.07C1362.38 1014.04 1362.52 1014.01 1362.68 1013.99C1373.12 1012.62 1391.26 1008.54 1400.93 1013.25C1408.62 1017 1399.59 1020.96 1405.33 1022.3C1407.06 1022.7 1408.64 1019.54 1409.74 1017.05C1410.39 1015.58 1410.88 1014.34 1411.12 1014.23C1417.4 1011.19 1422.1 1014.59 1427.86 1013.21C1429.06 1012.92 1427.73 1009.64 1428.75 1009.44C1432.24 1008.71 1436 1010.06 1439.36 1009.69C1440.86 1009.52 1440.51 1006.98 1441.92 1007.14C1445.27 1007.49 1448.25 1008.51 1451.54 1010.85C1451.83 1011.07 1449.89 1014.26 1452.34 1014.35C1453.83 1014.4 1455.46 1014.76 1457.14 1015.06C1459.97 1015.57 1462.96 1015.93 1465.84 1014.44C1467.2 1013.72 1467.34 1007.9 1470.23 1011.96C1470.83 1012.81 1469.91 1019.78 1473.44 1013.81C1474.01 1012.82 1480.06 1004.82 1482.74 1010.19C1483.44 1011.6 1485.11 1017.39 1486.78 1016.56C1487.01 1016.43 1486.25 1013.27 1487.64 1013.02C1492.51 1012.23 1497.56 1012.86 1502.61 1012.25C1503.96 1012.09 1502.21 1008.71 1504.23 1008.57C1504.75 1008.53 1505.28 1008.51 1505.83 1008.5C1511.06 1008.44 1517.11 1009.79 1521.88 1011.26C1523.82 1011.86 1522.14 1014.37 1522.25 1014.67C1524 1019.65 1526.11 1013.46 1526.94 1013.18C1532.01 1011.56 1535.26 1015.05 1539.77 1014.94C1541.02 1014.91 1540.62 1011.76 1540.9 1011.53C1543.85 1009.3 1541.11 1014.42 1542.61 1015.27C1546.19 1017.32 1550.34 1018.08 1554.32 1018.56C1555 1018.64 1555.66 1018.72 1556.32 1018.79C1558 1018.96 1556.82 1015.13 1558.33 1015.33C1567.33 1016.48 1576.3 1018.91 1584.65 1023.19C1586.19 1024 1584.42 1026.35 1584.6 1027.04C1585.73 1031.86 1590.72 1027.11 1591.68 1026.81C1595.94 1025.37 1596.56 1028.09 1599.68 1028.6C1600.88 1028.8 1602.09 1029.03 1603.3 1029.29C1603.3 1029.29 1603.3 1029.29 1603.3 1029.29C1609.42 1030.61 1617.2 1033.46 1623.49 1036.44C1630.08 1039.54 1636.29 1043.16 1641.78 1046.69C1643.92 1048.07 1645.95 1049.43 1647.87 1050.74C1651.66 1053.33 1655.11 1055.93 1658.35 1058.5C1663.76 1062.8 1668.6 1067.02 1673.44 1071.15C1678.2 1075.21 1682.97 1079.18 1688.23 1083.1C1688.46 1083.27 1688.7 1083.45 1688.94 1083.62C1689.84 1084.29 1691.22 1080.75 1692.03 1081.29C1696.67 1084.51 1701.02 1088.16 1705.1 1091.68C1705.1 1091.68 1705.1 1091.68 1705.1 1091.68C1709.58 1095.55 1713.82 1099.01 1719.35 1102.49C1720.16 1103 1721.14 1099.43 1722.5 1100.16C1722.98 1100.41 1723.47 1100.69 1723.96 1101C1726.35 1102.52 1728.81 1104.73 1730.45 1107.12C1731.43 1108.52 1727.91 1109.56 1728.93 1110.92C1731.28 1114.09 1734.42 1116.8 1737.94 1118.84C1739.31 1119.63 1739.52 1116.11 1740.89 1116.45C1741.03 1116.49 1741.19 1116.56 1741.35 1116.69C1747.58 1121.34 1753.93 1126.19 1759.86 1131.98C1765.64 1137.62 1771.06 1144.18 1775.28 1152.18C1775.45 1152.52 1775.16 1153.26 1774.73 1154.16C1773.74 1156.24 1772.03 1159.12 1773.9 1159.83C1775.53 1158.68 1777.29 1157.16 1778.96 1155.85C1784.33 1161.61 1789.28 1168.19 1793.55 1175.66C1798.33 1183.75 1803.2 1196.02 1804.97 1205.28C1804.97 1205.28 1804.97 1205.28 1804.97 1205.28C1806.65 1213 1807.8 1223.42 1808.04 1231.3C1808.06 1231.95 1808.09 1232.6 1808.11 1233.25C1808.14 1234.36 1811.84 1232.26 1811.92 1234.44C1812.17 1241.82 1812.31 1248.81 1811.4 1255.49C1810.76 1260.18 1809.6 1264.71 1807.56 1269.04C1807.07 1270.08 1800.52 1268.81 1801.16 1272.03C1801.24 1272.41 1801.41 1274.66 1801.9 1276.5C1802.14 1277.42 1802.46 1278.24 1802.89 1278.69C1803.08 1278.88 1806.27 1278.43 1806.18 1279.92C1805.76 1285.71 1804.78 1291.37 1803.4 1296.64C1802.72 1299.2 1801.96 1301.67 1801.11 1304.04C1800.68 1305.22 1797.51 1303.62 1797.17 1304.46C1795.97 1307.56 1795.96 1310.83 1795.85 1313.92C1795.74 1316.83 1795.54 1319.57 1794.14 1322.14C1792.23 1325.71 1786.47 1324.63 1780.96 1327.01C1780.17 1327.35 1780.24 1329.78 1777 1330.22C1768.82 1331.38 1759.71 1330.8 1751.01 1332.14C1749.11 1332.44 1751.61 1336.56 1746.78 1334.47C1746.45 1334.33 1744.65 1331.26 1743.05 1330.56C1741.94 1330.07 1738.69 1331.34 1737.24 1330.26C1735.79 1329.16 1738.5 1327.71 1736.82 1325.87C1735.13 1324.01 1731.34 1324.95 1730.84 1321.04ZM1117.93 1030.01C1119.23 1033.72 1122.84 1022.63 1119.72 1024.61C1119.57 1024.71 1117.86 1029.82 1117.93 1030.01ZM866.31 893.71C866.379 899.744 872.126 894.375 872.255 889.817C872.37 885.258 866.279 891.876 866.31 893.71ZM836.049 880.506C837.272 885.846 845.929 871.739 840.8 872.691C840.504 872.741 835.976 880.195 836.049 880.506ZM1779.16 1317.17C1779 1317.2 1778.82 1319.01 1778.98 1319.06C1782.67 1320.01 1783.01 1316.49 1779.16 1317.17ZM805.481 868.714C805.481 871.226 809.605 870.454 809.617 867.327C809.617 864.804 805.47 865.58 805.481 868.714ZM1237.62 1057.78C1237.66 1057.96 1239.04 1058.13 1239.03 1057.15C1238.97 1053.99 1237.04 1054.85 1237.62 1057.78ZM755.307 845.695C762.677 849.407 761.675 863.881 754.291 859.068C752.939 858.197 759.118 856.369 757.741 854.454C755.173 850.941 749.662 857.951 747.901 852.291C747.565 851.246 754.885 845.445 755.327 845.683C755.32 845.687 755.313 845.691 755.307 845.695ZM1115.19 1043.81C1115.2 1043.98 1117 1044.66 1117.09 1044.53C1119.11 1041.26 1115.52 1039.9 1115.19 1043.81ZM1319.29 1060.48C1319.37 1060.63 1320.42 1060.65 1321.52 1060.58C1322.72 1060.52 1323.97 1060.36 1324.02 1060.19C1324.82 1056.85 1322.66 1055.43 1320.87 1055.74C1319.28 1056.02 1317.97 1057.64 1319.29 1060.48ZM993.653 996.561C989.953 998.721 987.529 997.812 988.445 992.925C990.131 994.203 991.94 995.302 993.653 996.561Z" fill="#A6BE47" fill-opacity="0.2"/>
</svg>
