<svg width="53" height="35" viewBox="0 0 53 35" fill="none" xmlns="http://www.w3.org/2000/svg">
<path d="M26.5132 0.484379C20.617 0.484379 14.7252 2.21571 9.63054 5.68059H0L4.33496 10.3954C2.35984 12.1949 0.975238 14.5498 0.363051 17.1507C-0.249136 19.7515 -0.0602753 22.4768 0.904823 24.9684C1.86992 27.4599 3.56611 29.6013 5.77058 31.1112C7.97504 32.6211 10.5847 33.4288 13.2566 33.4283C16.5951 33.4303 19.8104 32.1679 22.2556 29.895L26.5 34.5148L30.7444 29.8994C33.1874 32.171 36.4008 33.432 39.7367 33.4283C43.2501 33.4283 46.6196 32.0329 49.1044 29.549C51.5891 27.0651 52.9856 23.6961 52.9867 20.1827C52.9891 18.3401 52.6058 16.5174 51.8615 14.8318C51.1172 13.1462 50.0284 11.635 48.665 10.3954L53 5.68059H43.3937C38.4167 2.29201 32.5343 0.481275 26.5132 0.484379ZM26.5 4.81271C29.881 4.81271 33.2641 5.48184 36.4463 6.80684C30.7908 8.971 26.5 14.0325 26.5 19.9288C26.5 14.0303 22.2114 8.971 16.5537 6.80684C19.7049 5.49217 23.0855 4.81295 26.5 4.81271ZM13.2544 11.2213C14.4315 11.2213 15.5971 11.4531 16.6846 11.9036C17.7722 12.3541 18.7603 13.0143 19.5927 13.8467C20.425 14.679 21.0853 15.6672 21.5357 16.7547C21.9862 17.8422 22.218 19.0078 22.218 20.1849C22.218 21.362 21.9862 22.5276 21.5357 23.6152C21.0853 24.7027 20.425 25.6908 19.5927 26.5232C18.7603 27.3555 17.7722 28.0158 16.6846 28.4662C15.5971 28.9167 14.4315 29.1485 13.2544 29.1485C10.8771 29.1485 8.59718 28.2042 6.91618 26.5232C5.23517 24.8422 4.29079 22.5622 4.29079 20.1849C4.29079 17.8076 5.23517 15.5277 6.91618 13.8467C8.59718 12.1657 10.8771 11.2213 13.2544 11.2213ZM39.7367 11.2257C40.9134 11.2253 42.0787 11.4566 43.166 11.9065C44.2532 12.3564 45.2413 13.0161 46.0736 13.8478C46.906 14.6795 47.5663 15.6671 48.017 16.754C48.4677 17.841 48.6999 19.006 48.7004 20.1827C48.7008 21.3594 48.4695 22.5246 48.0196 23.6119C47.5697 24.6992 46.91 25.6872 46.0783 26.5196C45.2466 27.3519 44.259 28.0123 43.1721 28.463C42.0851 28.9137 40.9201 29.1459 39.7434 29.1463C37.367 29.1472 35.0875 28.204 33.4065 26.5243C31.7255 24.8445 30.7806 22.5658 30.7797 20.1893C30.7789 17.8129 31.7221 15.5335 33.4018 13.8525C35.0816 12.1715 37.3603 11.2266 39.7367 11.2257ZM13.2544 15.4878C12.0081 15.4878 10.8128 15.9829 9.93149 16.8642C9.05019 17.7455 8.55508 18.9408 8.55508 20.1871C8.55508 21.4335 9.05019 22.6288 9.93149 23.5101C10.8128 24.3914 12.0081 24.8865 13.2544 24.8865C14.5008 24.8865 15.6961 24.3914 16.5773 23.5101C17.4586 22.6288 17.9537 21.4335 17.9537 20.1871C17.9537 18.9408 17.4586 17.7455 16.5773 16.8642C15.6961 15.9829 14.5008 15.4878 13.2544 15.4878ZM39.7367 15.4878C38.4904 15.4878 37.2951 15.9829 36.4138 16.8642C35.5325 17.7455 35.0374 18.9408 35.0374 20.1871C35.0374 21.4335 35.5325 22.6288 36.4138 23.5101C37.2951 24.3914 38.4904 24.8865 39.7367 24.8865C40.9831 24.8865 42.1784 24.3914 43.0597 23.5101C43.941 22.6288 44.4361 21.4335 44.4361 20.1871C44.4361 18.9408 43.941 17.7455 43.0597 16.8642C42.1784 15.9829 40.9831 15.4878 39.7367 15.4878Z" fill="#FDFDF5"/>
</svg>
