<svg width="1440" height="1006" viewBox="0 0 1440 1006" fill="none" xmlns="http://www.w3.org/2000/svg">
<path d="M0 0H1440V1006H0V0Z" fill="#FFFFF0"/>
<path d="M1365.15 117.379C1363.87 117.377 1362.51 117.348 1361.1 117.299C1358.06 117.193 1354.78 116.995 1351.43 116.75C1348.11 116.506 1344.7 116.215 1341.44 115.902C1339.44 115.71 1337.47 115.509 1335.62 115.304C1332.69 114.988 1334.18 113.664 1332.15 113.389C1331.81 113.344 1331.46 113.307 1331.13 113.278C1327.56 112.965 1324.14 113.446 1320.5 112.933C1320.43 112.924 1320.37 112.915 1320.31 112.905C1318.96 112.696 1320.63 110.583 1319.22 110.412C1316.01 110.03 1312.79 109.901 1309.62 109.839C1305.36 109.753 1301.31 109.9 1297.17 109.782C1292.37 109.647 1287.39 109.648 1282.48 109.762C1273.32 109.976 1264.13 110.591 1254.93 111.527C1245.74 112.464 1236.52 113.721 1227.29 115.225C1218.12 116.719 1208.92 118.457 1199.67 120.372C1195.79 121.175 1191.92 122.009 1188.02 122.869C1183.03 123.97 1177.52 124.969 1171.89 126.069C1163.77 127.659 1155.46 129.455 1148.28 131.999C1146.87 132.505 1148.49 134.009 1148.27 134.231C1146.93 135.582 1146.11 135.794 1145.42 135.572C1144.33 135.236 1143.58 133.868 1141.69 134.077C1133.96 134.946 1125.95 136.5 1118.47 138.367C1113.94 139.497 1109.58 140.754 1105.53 142.065C1100.95 143.552 1107.01 145.87 1101.53 145.097C1101.15 145.047 1101.61 142.868 1100.25 142.994C1098.41 143.167 1095.74 143.858 1093.42 144.481C1091.84 144.9 1090.43 145.288 1089.5 145.463C1085.08 146.289 1084.38 146.495 1080.33 147.555C1076.74 148.484 1072.59 149.181 1068.58 150.143C1066.39 150.669 1064.24 151.275 1062.25 152.035C1061.06 152.499 1063.55 153.903 1061.74 154.813C1059.93 155.716 1054.72 157.158 1052.79 157.282C1050.85 157.399 1050.85 155.692 1050.38 155.454C1048.28 154.378 1046.17 155.56 1044.59 156.959C1043.19 158.187 1042.21 159.581 1041.88 159.749C1035.5 163.009 1029.29 165.282 1023.14 167.53C1017.03 169.766 1011.1 171.924 1005.44 174.97C1004.16 175.664 1002.85 176.401 1001.55 177.175C998.524 178.979 995.869 180.783 993.016 182.803C990.171 184.822 987.373 186.911 984.592 188.934C983.439 189.773 982.287 190.6 981.135 191.406C979.315 192.674 977.519 193.898 975.722 195.093C972.583 197.177 969.46 199.173 966.297 201.182C963.118 203.197 959.899 205.226 956.553 207.371C955.337 208.151 954.105 208.947 952.85 209.763C951.769 210.458 954.845 211.534 953.501 212.401C951.729 213.532 949.933 214.63 948.224 215.627C943.273 218.512 938.409 221.302 933.41 224.072C928.427 226.837 923.389 229.537 918.247 232.152C916.308 233.141 914.345 234.118 912.374 235.082C910.959 235.772 911.046 233.075 909.536 233.669C906.787 234.764 903.473 235.967 900.238 237.4C894.381 239.989 888.794 243.349 887.387 247.97C886.958 249.362 886.918 250.867 887.363 252.499C883.715 254.695 879.614 257.259 875.498 259.301C873.463 260.312 871.429 261.193 869.434 261.837C865.563 263.096 866.493 259.343 863.735 262.69C863.116 263.444 865.81 264.133 864.761 265.151C863.648 266.23 862.424 267.277 861.161 268.314C857.401 271.4 853.293 274.349 850.328 277.761C849.526 278.693 851.322 279.756 851.322 280.206C851.226 283.898 843.621 283.966 842.5 284.436C839.019 285.899 836.309 287.53 833.909 289.279C830.46 291.793 827.662 294.549 824.126 297.456C822.727 298.599 826.478 298.901 825.214 300.06C820.351 304.495 815.097 308.868 809.59 312.862C807.651 314.264 805.688 315.618 803.693 316.911C801.984 318.016 801.547 315.441 800.633 315.896C796.636 317.923 799.369 321.174 795.594 323.172C794.808 323.596 793.613 322.086 793.325 322.052C788.824 321.522 791.029 325.81 790.642 326.273C787.844 329.72 784.036 331.208 780.315 332.883C777.638 334.088 775.006 335.389 772.804 337.593C772.177 338.227 775.694 338.465 773.811 340.154C767.809 345.537 761.312 350.843 754.481 355.876C747.034 361.365 739.186 366.527 731.207 371.116C728.829 372.483 729.003 370.129 728.698 370.077C723.876 369.299 725.952 373.514 725.369 374.146C724.984 374.55 724.574 374.926 724.146 375.282C719.395 379.223 712.576 380.442 712.626 386.451C706.85 389.793 701.175 393.209 695.576 396.537C690.998 399.258 686.432 402.043 681.851 404.795C677.257 407.556 672.634 410.291 667.913 412.929C663.186 415.571 658.361 418.114 653.385 420.478C648.402 422.845 643.266 425.032 637.938 426.945C636.606 427.424 635.264 427.884 633.908 428.326C633.536 428.452 632.76 426.362 632.027 426.62C624.001 429.389 626.257 431.267 624.5 436.149C624.316 436.652 624.089 437.185 623.798 437.753C622.996 439.301 615.779 437.043 615.203 436.887C613.048 436.358 612.62 432.974 612.008 432.958C607.447 432.865 612.86 440.572 609.369 443.428C609.112 443.638 608.804 443.821 608.441 443.971C608.267 444.023 607.888 442.039 607.34 442.053C605.643 442.085 604.682 443.318 602.948 443.27C598.935 443.144 595.316 438.978 592.042 443.352C591.824 443.644 592.755 445.152 592.993 446.738C593.213 448.201 592.834 449.741 590.392 450.42C588.711 450.9 582.372 452.998 578.764 453.833C578.044 454.005 577.436 454.129 576.998 454.19C574.371 454.546 575.287 452.27 575.074 452.245C567.465 451.749 569.55 450.051 564.849 447.423C560.204 444.768 564.446 452.91 563.461 454.2C563.208 454.528 562.651 454.726 561.937 454.829C559.859 455.135 556.481 454.624 555.408 454.323C553.967 453.921 555.025 452.41 553.829 452.274C545.937 451.372 552.252 457.201 550.399 459.089C549.429 460.071 548.349 460.577 547.21 460.771C543.17 461.461 538.404 458.267 534.347 458.604C532.936 458.721 534.504 459.93 533.335 460.318C532.39 460.627 531.495 460.814 530.623 460.942C527.21 461.442 524.202 461.032 520.297 463.348C519.752 463.671 518.079 465.939 515.901 466.663C514.861 467.008 513.701 467.003 512.504 466.281C511.975 465.954 512.669 464.151 510.499 464.187C507.259 464.242 501.578 464.862 498.366 465.922C495.985 466.709 499.468 468.895 496.134 468.567C494.663 468.414 496.862 466.479 494.14 466.318C491.434 466.163 484.864 467.163 482.355 467.542C479.862 467.929 481.634 469.756 481.46 469.919C481.238 470.112 480.864 470.333 480.406 470.563C478.647 471.45 475.632 472.452 475.295 472.491C465.121 473.867 455.207 474.224 445.431 474.612C434.488 475.046 423.675 475.512 412.846 477.445C411.239 477.731 412.719 479.719 412.478 479.784C411.902 479.953 411.427 480.033 411.031 480.04C407.727 480.098 409.95 475.026 406.14 473.787C407.545 478.018 405.101 477.526 401.294 478.531C399.464 479.02 400.838 480.541 400.702 480.735C398.475 483.642 395.852 480.666 395.198 480.074C392.805 477.895 391.471 481.091 389.841 479.651C388.199 478.228 390.528 475.365 386.775 475.99C386.105 477.688 389.829 481.243 387.18 482.342C384.422 483.495 380.876 484.358 377.024 485.074C366.987 486.889 354.764 487.998 348.771 489.446C346.623 489.948 344.87 490.411 343.368 490.829C339.102 492.028 336.834 492.825 333.231 493.612C324.457 495.646 329.019 497.321 324.906 500.464C320.882 503.678 318.866 496.175 317.225 495.058C315.56 493.962 315.742 495.748 314.327 495.373C312.903 495.005 314.188 493.192 311.876 493.846C310.817 494.149 309.405 495.386 308.254 496.825C306.907 498.518 305.879 500.476 306.063 501.443C306.791 505.224 311.629 507.191 305.493 508.678C305.137 508.763 304.878 506.601 303.578 507.011C302.128 507.479 300.688 507.98 299.259 508.502C294.67 510.181 290.182 512.103 285.702 514.017C281.686 515.733 277.677 517.443 273.598 518.971C272.214 519.487 271.864 517.069 271.042 517.349C270.842 517.417 270.651 517.484 270.467 517.55C262.703 520.36 267.655 522.011 266.337 527.515C264.106 523.513 260.738 521.741 256.517 522.795C255.454 523.06 254.34 523.505 253.178 524.138C249.707 526.03 251.949 527.658 250.889 530.27C250.574 531.055 247.008 531.071 247.347 532.235C247.893 534.127 249.438 535.591 249.994 536.824C250.559 538.074 250.11 539.084 246.595 540.07C246.285 540.152 245.699 538.055 244.727 538.456C240.508 540.192 240.028 542.346 238.402 544.752C237.596 545.937 236.524 547.178 234.588 548.467C232.053 550.155 227.806 551.824 223.538 553.465C220.056 554.804 216.562 556.124 213.978 557.411C210.263 553.009 206.578 555.636 206.357 559.466C206.325 560.015 206.364 560.587 206.483 561.167C202.823 563.102 199.202 565.55 195.4 567.124C194.091 567.668 193.553 565.791 193.266 565.727C191.315 565.276 190.502 565.828 190.156 566.638C189.71 567.682 190.04 569.154 189.685 569.486C185.837 572.935 181.43 575.003 177.367 577.424C174.091 579.378 171.036 581.567 168.796 584.855C168.617 585.121 171.561 588.641 167.136 587.631C166.835 587.56 167.736 584.407 164.148 586.69C163.971 586.804 163.782 586.919 163.582 587.036C159.882 589.183 152.62 591.948 149.561 596.413C149.454 596.569 149.352 596.726 149.256 596.886C148.507 598.099 148.674 602.704 144.159 602.53C143.549 602.502 142.827 601.377 141.816 601.233C141.675 601.214 141.546 601.203 141.428 601.198C138.803 601.111 141.329 604.384 136.754 603.18C134.438 602.578 131.888 602.474 129.609 603.173C127.177 603.918 125.053 605.585 123.953 608.477C123.911 608.576 124.56 609.67 124.867 610.805C125.096 611.656 125.135 612.529 124.537 613.037C122.998 614.338 120.781 615.853 118.854 617.375C117.982 618.064 117.168 618.751 116.501 619.414C115.48 620.434 118.145 621.126 118.003 621.326C116.946 622.708 115.876 623.966 114.784 625.143C112.715 627.375 110.579 629.301 108.302 631.279C106.344 632.979 104.409 634.704 102.43 636.753C101.363 637.857 100.298 639.043 99.2423 640.337C98.8164 640.856 98.5748 641.935 98.264 643.187C97.7037 645.413 96.9455 648.182 94.2061 649.504C94.1282 649.542 94.0487 649.576 93.9676 649.609C89.3772 651.46 80.5071 644.699 78.4719 651.935C78.3975 652.202 78.3329 652.488 78.2785 652.794C77.9362 654.682 81.4568 658.264 82.978 661.629C84.2678 664.446 84.0978 667.175 79.1745 668.191C79.1418 668.198 79.109 668.205 79.0759 668.212C75.1138 677.02 68.105 683.919 63.2929 692.121C61.9327 694.44 60.7502 696.862 59.8679 699.454C59.6849 699.984 62.7753 703.148 62.025 704.25C60.902 705.886 58.4484 706.041 57.5889 707.19C54.972 710.628 53.6387 714.308 51.9413 717.872C51.273 719.278 50.5481 720.663 49.6652 722.01C48.4843 723.822 46.8935 722.416 45.4884 724.589C44.0883 726.761 45.8347 729.223 42.8571 731.756C40.6025 733.664 33.9692 733.96 31.6426 736.79C35.1679 738.176 35.7284 739.562 35.5262 741.611C35.4294 742.597 35.1572 743.732 34.955 745.098C34.8381 745.91 37.0992 745.807 37.1391 746.226C37.3452 747.934 35.1286 748.656 35.4665 750.332C35.5458 750.732 37.3527 751.389 37.5207 751.756C39.0177 754.883 33.0242 757.093 31.9831 757.48C28.0209 758.956 29.8169 760.89 27.8046 762.379C25.7936 763.874 25.8596 760.658 24.1109 762.604C23.121 763.713 22.2093 764.957 21.3619 766.278C19.1087 769.785 17.3211 773.819 15.6815 777.158C14.7934 778.989 17.8528 778.492 17.7828 778.776C16.6303 782.759 12.2439 785.847 16.2545 789.411C7.1513 788.702 9.99659 790.069 11.7301 792.383C12.6572 793.627 13.2665 795.141 11.5593 796.798C11.1697 797.165 4.84647 796.037 4.6656 794.11C4.56818 793.059 5.41563 791.983 6.14611 790.784C6.75426 789.791 7.28146 788.709 7.11743 787.477C7.02799 786.839 2.77379 782.018 2.63291 781.483C1.49444 777.294 10.7272 779.556 11.2993 779.53C17.5489 779.169 13.2712 773.51 13.3427 772.369C13.5078 769.301 14.6941 766.826 15.7487 764.441C16.477 762.798 17.1431 761.193 17.3777 759.459C17.7657 756.681 12.0817 754.47 13.2754 752.562C17.2706 746.22 26.5145 746.851 22.8604 738.292C22.481 737.383 20.586 736.687 19.6662 735.862C18.7221 735.017 18.8072 734.038 22.623 732.588C23.0988 732.407 29.5338 730.628 27.821 727.579C27.6045 727.199 25.7791 726.522 25.8142 726.136C26.0872 723.557 28.382 722.629 29.0811 719.967C29.7812 717.305 30.4445 714.026 32.6794 711.539C32.9389 711.249 33.321 710.986 33.7776 710.747C35.685 709.748 38.8934 709.175 39.9358 708.809C43.6284 707.546 41.1863 703.641 44.8796 703.427C48.5895 703.217 51.3205 707.636 55.3649 704.815C50.7823 702.798 46.1835 700.557 41.6271 698.444C44.2328 694.384 47.2035 690.523 50.1324 686.648C52.8535 683.048 55.5377 679.437 57.8689 675.632C58.4655 674.649 55.3429 674.588 55.9199 673.505C58.2389 669.186 62.1781 666.213 64.5086 661.84C64.6307 661.608 64.745 661.372 64.8506 661.135C65.6367 659.338 65.7748 657.29 66.0095 655.06C66.1994 653.133 66.4071 651.159 67.0522 649.336C68.1487 649.301 69.0994 649.103 69.9363 648.777C72.701 647.705 74.221 645.232 75.672 642.662C76.4576 641.27 77.2244 639.852 78.1351 638.642C79.2246 637.195 80.5914 637.871 81.7239 636.99C81.9353 636.825 82.122 636.667 82.2865 636.517C85.4631 633.648 80.159 633.482 80.1749 632.098C80.2615 629.428 82.3247 628.606 84.8814 628.206C88.3989 627.657 92.8018 627.831 95.3743 624.654C95.4339 624.583 95.3354 624.114 95.159 623.451C94.574 621.59 93.424 617.975 93.5154 617.486C94.1186 613.406 95.7113 618.106 97.7276 616.613C98.3403 616.164 98.9419 615.754 99.5316 615.359C102.271 613.529 104.687 612.069 106.538 608.891C106.689 608.633 106.836 608.363 106.981 608.08C107.626 606.774 107.309 602.173 111.776 601.88C112.36 601.842 113.76 603.128 114.079 602.99C114.116 602.973 114.152 602.957 114.187 602.941C119.674 600.395 115.04 596.693 115.895 593.352C115.958 593.106 116.056 592.875 116.182 592.658C117.795 589.894 124.033 589.439 125.608 589.572C130.046 589.895 125.055 591.667 125.183 591.955C126.452 594.743 128.265 593.328 130.219 591.923C130.596 591.651 130.978 591.381 131.362 591.139C136.186 594.652 138.871 592.124 133.81 589.584C133.248 589.313 131.997 590.971 131.362 591.139C129.37 587.172 130.689 584.336 134.868 583.652C136.115 583.446 137.631 583.42 139.408 583.597C143.046 583.963 143.558 587.109 148.09 582.519C150.16 580.452 146.267 578.416 147.644 576.13C148.153 575.289 148.819 574.535 149.607 573.841C153.705 570.222 160.864 568.417 164.939 565.209C165.021 565.144 165.093 565.081 165.154 565.02C166.4 563.785 163.372 563.432 164.479 562.474C167.571 559.797 171.796 559.015 174.769 556.218C175.038 555.962 172.701 554.802 173.788 554.097C174.783 553.447 175.781 552.827 176.78 552.231C181.942 549.156 187.166 546.713 192.543 543.955C194.733 542.831 196.949 541.655 199.199 540.365C201.463 539.065 204.437 536.965 207.41 534.938C210.05 533.138 212.69 531.393 214.833 530.304C217.265 529.062 220.03 527.937 222.875 526.842C227.665 524.994 232.726 523.23 236.716 521.237C238.074 520.559 239.311 519.852 240.381 519.099C244.371 516.313 241.984 515.131 242.862 512.935C243.365 511.673 244.585 510.834 246.085 510.286C249.634 508.986 254.742 509.32 255.71 509.438C255.752 509.443 252.337 511.886 255.067 511.683C257.748 512.895 255.674 509.469 255.71 509.438C256.247 509.497 259.244 508.22 261.846 506.948C263.611 506.085 265.193 505.222 265.692 504.766C266.362 504.153 264.583 502.751 264.958 502.462C267.369 500.621 269.857 498.862 272.426 497.188C276.462 494.557 280.694 492.138 285.138 489.944C288.376 488.345 291.716 486.87 295.206 485.507C295.419 485.45 296.524 487.473 297.006 487.316C298.258 486.919 299.353 486.456 300.326 485.943C304.792 483.606 307.266 480.222 311.409 477.1C316.585 473.251 321.601 472.101 326.823 474.434C329.039 473.424 332.09 472.833 335.054 472.521C337.678 472.242 340.235 472.177 342.127 472.16C346.143 472.136 345.05 467.951 345.348 467.781C354.146 462.845 360.788 463.613 370.584 462.298C371.048 462.237 371.519 462.173 371.999 462.102C377.058 461.343 386.82 459.137 392.114 457.924C396.297 456.943 399.066 457.586 402.84 456.447C403.352 456.294 402.449 454.483 402.596 454.39C406.535 451.582 405.316 456.449 406.372 457.155C406.491 457.235 406.608 457.314 406.723 457.392C410.329 459.819 412.621 461.02 417.709 459.037C418.915 458.568 421.476 451.512 423.733 450.867C426.661 450.041 425.925 452.546 428.969 451.626C429.23 451.55 428.932 450.087 430.877 449.942C434.273 449.682 437.777 449.498 441.31 449.307C447.166 448.991 453.103 448.654 458.74 447.922C459.974 447.767 457.988 445.62 459.761 445.358C464.729 444.621 469.948 443.96 475.063 443.53C478.499 443.243 481.897 443.058 485.149 443.035C487.142 443.026 486.294 444.822 486.821 445.241C490.097 447.766 492.715 442.976 493.246 442.804C498.194 441.225 502.894 440.442 507.75 439.76C512.975 439.013 518.064 438.536 523.293 437.559C526.609 436.939 529.967 436.121 533.392 434.909C533.81 434.757 535.389 432.955 537.355 431.878C538.982 430.989 540.873 430.592 542.691 432.026C542.952 432.239 547.018 435.493 548.376 432.276C548.455 432.076 546.095 430.483 549.005 429.99C549.902 429.837 550.906 429.495 551.997 429.128C554.448 428.308 557.312 427.366 560.562 428.133C561.791 428.425 565.133 430.557 567.51 428.887C567.983 428.553 568.415 428.067 568.773 427.385C568.979 427.097 571.019 418.681 575.171 422.697C575.851 423.356 578.051 428.384 580.874 424.45C580.932 424.366 580.959 424.285 580.964 424.203C580.998 423.552 579.598 422.948 581.081 421.706C583.693 419.532 588.207 419.394 590.713 415.711C590.821 415.55 590.954 415.158 591.154 414.681C591.781 413.228 592.893 411.034 595.677 412.146C596.264 412.375 596.656 414.217 597.911 413.889C600.718 413.159 603.446 411.881 606.107 410.592C609.112 409.137 612.122 407.631 615.523 406.677C617.799 406.032 618.651 408.978 621.257 408.55C621.796 408.46 622.426 408.322 623.098 408.137C625.675 407.432 628.87 406.034 629.896 404.234C631.182 401.967 625.694 399.456 628.672 397.397C629.773 396.633 630.892 395.89 632.03 395.166C636.311 392.437 640.833 389.967 645.477 387.578C650.128 385.185 654.897 382.877 659.652 380.482C663.681 378.452 667.69 376.366 671.604 374.116C673.283 373.151 671.822 372.791 672.607 371.757C672.812 371.48 673.18 371.156 673.811 370.76C681.232 366.121 690.832 358.86 700.133 353.046C704.514 350.325 708.745 348.024 712.509 346.739C721.873 343.5 714.773 351.715 721.122 348.483C724.196 346.899 722.496 340.894 722.967 340.298C724.828 337.914 726.936 336.228 729.11 334.743C732.32 332.548 735.678 330.792 738.512 327.89C739.491 326.885 736.53 326.246 737.382 325.409C740.272 322.535 744.485 320.438 747.395 317.774C748.695 316.576 746.994 315.639 748.367 314.678C749.964 313.548 751.562 312.55 753.282 311.661C755.086 310.728 757.022 309.914 759.231 309.19C759.624 309.061 759.625 312.004 761.932 310.171C765.657 307.199 771.51 304.434 774.292 299.8C775.112 298.421 771.813 295.789 776.795 295.309C777.838 295.207 781.14 298.927 780.784 293.592C780.766 293.289 780.818 292.155 781.117 290.795C781.694 288.158 783.208 284.667 786.906 284.768C788.383 284.806 793.405 285.888 794.402 284.213C794.525 283.976 791.912 283.27 792.993 282.077C796.834 277.896 801.698 274.142 805.783 269.881C806.864 268.74 803.184 268.796 804.869 267.14C805.084 266.934 805.298 266.727 805.513 266.52C810.13 262.137 816.647 257.603 822.155 254.142C824.269 252.813 824.428 255.096 824.73 255.121C829.57 255.574 827.368 251.573 827.909 250.818C829.792 248.257 832.208 246.734 834.632 245.285C836.587 244.114 838.598 242.964 840.378 241.329C841.491 240.325 838.987 239.512 839.083 239.203C840.195 236.065 841.244 240.068 843.16 239.187C845.401 238.165 847.555 236.926 849.621 235.582C852.49 233.719 855.192 231.654 857.735 229.691C859.341 228.447 855.621 228.032 857.083 226.935C858.665 225.745 860.278 224.569 861.916 223.412C866.724 220.024 871.786 216.802 876.992 213.895C879.765 212.347 882.579 210.889 885.416 209.542C887.292 208.654 887.562 210.717 888.221 210.809C891.989 211.366 893.101 207.869 893.705 206.181C893.832 205.828 893.928 205.555 894.023 205.416C896.55 201.756 899.189 202.093 902.32 199.829C904.116 198.529 906 197.231 907.955 195.938C912.668 192.81 917.921 189.645 923.134 186.701C926.067 185.039 928.38 183.676 931.241 181.916C934.054 180.187 936.907 178.372 939.737 176.528C942.757 174.564 945.761 172.567 948.685 170.62C949.178 170.291 949.663 169.964 950.156 169.639C952.826 167.85 955.512 166.089 958.214 164.365C961.608 162.2 965.049 160.092 968.562 158.048C972.098 155.991 976.207 153.716 979.823 151.889C987.54 147.967 996.394 143.878 1004.94 140.133C1007.07 139.196 1009.24 138.257 1011.44 137.306C1012.87 136.694 1010.11 135.2 1011.34 134.644C1017.22 132.029 1023.25 129.789 1029.29 127.753C1038 124.816 1046.74 122.298 1055.33 119.621C1056.91 119.131 1058.47 118.635 1060.04 118.13C1061.36 117.711 1058.54 116.149 1060.63 115.405C1064.92 113.863 1070.53 112.496 1075.19 112.027C1077.46 111.794 1075.3 114.352 1077.57 114.082C1078.82 113.935 1080.07 113.756 1081.32 113.547C1085.36 112.87 1089.39 111.877 1093.15 110.638C1095.24 109.943 1091.17 108.603 1093.96 107.87C1097.8 106.845 1101.6 105.825 1105.37 104.825C1113.61 102.639 1121.34 100.644 1129.57 98.7855C1136.42 97.2235 1143.61 95.8782 1150.96 94.9917C1152.39 94.8203 1155.34 98.8756 1157.84 97.2786C1157.57 96.0069 1156.97 94.5811 1156.54 93.2577C1157.19 93.0684 1157.83 92.8807 1158.48 92.6945C1167.91 89.9773 1177.52 87.6014 1187.27 85.485C1197.03 83.3661 1206.93 81.5076 1216.94 79.8328C1225.98 78.3228 1235.11 76.9621 1244.35 75.699C1245.63 75.5237 1242.88 73.4401 1245.38 73.0891C1245.84 73.0257 1246.29 72.9622 1246.74 72.8987C1257.04 71.4614 1267.27 70.0224 1277.95 70.0002C1281.77 69.9933 1285.65 70.1705 1289.58 70.6017C1291.12 70.7708 1290.61 75.0788 1295.03 74.2597C1295.8 74.0973 1302.54 73.3479 1304.21 72.4137C1304.44 72.2708 1303.2 70.2795 1305.35 70.1979C1306.82 70.1479 1308.28 70.1172 1309.74 70.1053C1313.25 70.0743 1316.77 70.1006 1320.39 70.1984C1324 70.2958 1327.65 70.4642 1331.31 70.7184C1334.63 70.9483 1337.96 71.2486 1341.26 71.6288C1343.17 71.854 1341.15 73.8915 1342.4 74.1334C1342.42 74.1375 1342.44 74.1412 1342.46 74.1443C1346.09 74.6185 1349.85 74.7468 1353.68 74.8665C1357.5 74.9861 1361.38 75.098 1365.15 75.5306C1367.81 75.8343 1370.37 76.2909 1372.91 77.0215C1374.81 77.5762 1375.81 78.2744 1376.42 79.0764C1376.89 79.4235 1377.4 79.8132 1377.68 80.1984C1378.17 80.8135 1378.45 81.4586 1378.7 82.137C1378.93 82.8195 1379.16 83.5338 1379.53 84.3199C1379.78 84.82 1380.08 85.3471 1380.52 85.9466C1380.83 86.3675 1381.22 86.8205 1381.71 87.3711C1381.75 87.4089 1381.78 87.4472 1381.81 87.4859C1381.93 87.6554 1382.68 88.076 1383.42 88.6584C1383.8 88.9834 1384.8 89.8596 1385.2 90.4389C1385.64 91.0216 1385.98 91.6226 1386.2 92.187C1386.44 92.8355 1386.52 93.4363 1386.43 93.9282C1386.33 94.4854 1386.02 94.9002 1385.49 95.1155C1381.74 96.5605 1377.32 97.119 1373.28 98.6158C1370.96 99.4025 1368.74 100.372 1366.39 101.072C1366.31 101.094 1366.24 101.115 1366.17 101.136C1365.76 101.254 1365.46 101.066 1365.26 100.826C1365.12 100.674 1365.02 100.495 1364.89 100.304C1364.56 99.7543 1364.01 98.8384 1362.32 100.604C1362.3 100.621 1362.28 100.659 1362.26 100.713C1362.2 100.89 1362.12 101.217 1362.05 101.631C1362.02 101.913 1362 102.242 1362.01 102.631C1362.04 103.004 1362.1 103.435 1362.24 103.916C1362.39 104.48 1362.67 105.118 1362.96 105.702C1363.12 106.034 1363.29 106.345 1363.41 106.603C1364.61 108.438 1359.65 107.546 1362.31 110.667C1362.38 110.754 1362.5 110.867 1362.68 111.017C1363.85 111.867 1364.79 112.377 1365.49 112.709C1366.34 113.106 1367.04 113.328 1367.64 113.468C1368.2 113.596 1368.67 113.65 1369.06 113.675C1369.42 113.697 1369.73 113.694 1369.99 113.692C1370.22 113.69 1370.42 113.69 1370.61 113.709C1370.7 113.719 1371.06 113.778 1371.07 113.826C1370.82 113.853 1370.57 113.916 1370.3 114.024C1368.25 114.892 1368.69 117.379 1365.15 117.379ZM360.03 472.48C363.994 473.745 362.17 466.361 359.07 468.892C358.922 469.023 359.825 472.421 360.03 472.48ZM59.2404 686.191C64.8739 684.57 60.9232 680.173 56.6968 681.212C52.4704 682.262 57.5274 686.692 59.2404 686.191ZM41.7266 720.173C46.8327 717.576 35.3437 712.353 35.36 717.318C35.3573 717.602 41.4291 720.328 41.7266 720.173ZM1363.49 86.0174C1363.5 86.0485 1363.76 86.0948 1364.13 86.1423C1364.95 86.2502 1366.3 86.3703 1366.35 86.3054C1367.47 84.8293 1365.53 84.0616 1364.3 84.4174C1363.62 84.6087 1363.16 85.1241 1363.49 86.0174ZM26.2063 754.476C28.4596 753.851 28.3808 749.784 25.5691 750.551C23.2997 751.17 23.3935 755.256 26.2063 754.476ZM533.079 455.079C533.164 455.178 535.058 454.883 534.823 454.277C534.06 452.332 531.657 453.432 533.079 455.079ZM0.018591 812.615C3.84927 803.933 16.3053 801.555 11.4116 810.572C10.5323 812.215 9.54978 806.06 7.76717 807.974C4.49954 811.532 10.0169 815.78 5.03379 818.983C4.11265 819.583 -0.235474 813.111 0.00999664 812.596C0.0128577 812.602 0.0157307 812.608 0.018591 812.615ZM364.794 480.794C364.888 480.874 367.497 480.423 367.53 480.317C368.216 477.706 362.904 478.624 364.794 480.794ZM638.636 423.442C638.909 423.561 644.264 420.944 644.294 420.683C644.323 416.001 633.6 421.228 638.636 423.442ZM213.776 557.329C213.232 560.15 211.279 561.916 208.22 561.558C207.679 561.495 207.104 561.365 206.497 561.163C206.811 561.004 207.124 560.842 207.437 560.68C209.555 559.578 211.631 558.413 213.776 557.329ZM1375.41 920.964C1375.11 918.927 1375.09 916.716 1375.28 914.518C1375.63 910.413 1376.72 906.397 1377.91 903.252C1378.48 901.737 1380.01 902.672 1380.48 901.647C1380.7 901.176 1380.83 900.706 1380.94 900.242C1381.25 898.753 1381.14 897.283 1381.95 895.872C1382.3 895.259 1384.76 896.316 1385.08 895.672C1386.39 892.978 1386.63 890.361 1387.14 887.763C1387.3 886.97 1387.48 886.178 1387.72 885.385C1388.72 882.181 1389.57 879.088 1390.22 876.084C1391.04 872.333 1391.55 868.717 1391.68 865.262C1391.76 861.575 1391.69 859.055 1390.88 855.362C1389.95 851.597 1389.04 849.4 1386.87 845.835C1386.38 845.062 1385.86 844.295 1385.31 843.515C1383.67 841.22 1381.97 838.339 1379.66 835.625C1377.87 833.511 1375.74 831.526 1373.24 830.095C1372.58 829.715 1371.34 831.326 1371.11 831.346C1367.41 831.732 1371.15 829.444 1370.39 828.207C1369.95 827.498 1369.46 826.808 1368.92 826.138C1365.84 822.29 1361.24 819.17 1356.58 816.927C1356.44 816.856 1356.3 816.792 1356.16 816.721C1353.76 815.606 1353.14 819.879 1352.53 816.875C1352.48 816.669 1354.52 815.457 1354.07 814.916C1353.07 813.698 1350.2 812.357 1349.24 811.577C1347.39 810.056 1347.04 809.863 1345.07 808.632C1344.55 808.296 1344.02 807.916 1343.5 807.517C1341.37 805.886 1339.21 803.855 1336.57 802.644C1335.84 802.315 1335.18 804.449 1333.88 804.068C1332.59 803.694 1329.96 801.78 1329.45 800.82C1328.91 799.853 1330.54 798.886 1330.67 798.499C1330.9 797.835 1330.81 797.365 1330.53 797.036C1329.49 795.766 1325.48 796.585 1325.12 796.463C1322.09 795.302 1319.65 793.801 1317.44 792.17C1314 789.637 1311.1 786.775 1307.47 784.455C1307.19 784.268 1306.88 784.081 1306.58 783.9C1303.28 781.954 1299.55 780.278 1296.03 778.654C1294.32 777.861 1292.66 777.074 1291.11 776.262C1288.91 775.102 1286.92 773.929 1284.95 772.788C1281.88 771.029 1278.85 769.359 1275.24 768.135C1274.62 767.922 1274.12 770.339 1273.37 770.087C1273.03 769.978 1272.7 769.868 1272.37 769.759C1268.31 768.425 1264.79 767.277 1260.66 765.885C1256.7 764.57 1252.87 763.165 1249.15 761.573C1248.33 761.225 1250.15 759.465 1249.37 758.995C1244.7 756.152 1236.71 750.474 1231.23 758.853C1230.11 758.556 1228.9 758.247 1227.69 757.906C1225 757.139 1222.27 756.184 1220.19 754.638C1218.24 753.194 1220.8 751.228 1217.91 751.84C1217.26 751.982 1217.68 754.038 1216.74 754.103C1212.81 754.354 1208.72 753.271 1204.78 753.948C1203.99 754.09 1203.96 755.875 1203.69 756.178C1201.55 758.595 1199.06 754.083 1198.41 753.722C1196.64 752.73 1195 752.201 1193.4 751.905C1190.61 751.396 1187.97 751.602 1184.94 751.428C1183.83 751.363 1184.97 753.806 1183.9 753.832C1178.38 753.929 1172.69 753.561 1167.29 752.433C1166.08 752.182 1167.23 750.158 1166.65 749.932C1164.09 748.959 1163.49 752.801 1161.06 751.963C1160.54 751.795 1160.83 750.048 1160.74 749.861C1159.63 747.599 1158.62 749.443 1158.03 750.545C1157.84 750.906 1157.69 751.189 1157.59 751.209C1152.82 752.517 1149.64 748.121 1144.97 748.856C1144.41 748.946 1145.75 751.125 1144.18 751.254C1137.1 751.84 1129.73 751.995 1122.41 751.692C1118.97 751.55 1115.55 751.312 1112.19 750.964C1110.54 750.803 1111.53 749.075 1111.41 748.875C1109.42 745.807 1108.78 750.145 1108.28 750.338C1104.26 751.782 1099.94 748.508 1097.73 753.806C1094.02 753.729 1090.34 753.871 1086.67 754.122C1074.67 754.941 1062.9 756.894 1050.62 756.114C1048.62 755.991 1046.59 755.785 1044.55 755.482C1044.32 755.45 1044.4 753.316 1043.94 753.265C1038.34 752.601 1039.85 755.753 1036.69 760.039C1035.89 761.122 1032.53 756.52 1032.26 756.185C1031.22 754.947 1031.8 751.763 1031.47 751.531C1029.68 750.319 1029.79 754.605 1029 757.596C1028.62 759.04 1028.03 760.181 1026.93 760.252C1026.82 760.239 1027.09 758.312 1026.78 758.138C1025.85 757.603 1025.05 758.408 1024.14 757.802C1022.04 756.404 1020.96 751.415 1018.23 754.489C1017.88 754.883 1018.88 760.729 1015.85 760.587C1014.64 760.529 1009.32 760.825 1007.81 760.484C1007.67 760.451 1007.56 760.406 1007.46 760.348C1006.47 759.807 1007.24 758.215 1007.14 758.144C1003.06 755.746 1004.53 754.663 1002.44 751.002C1000.38 747.348 1001.17 756.146 1000.38 757.138C999.588 758.138 996.632 756.107 995.909 755.392C995.194 754.683 996.06 753.471 995.424 753.071C991.236 750.435 993.628 757.454 992.245 758.859C989.845 761.277 987.818 758.453 985.784 756.487C985.021 755.753 984.25 755.134 983.447 754.953C982.645 754.773 983.272 756.268 982.549 756.397C979.672 756.887 978.027 754.818 974.713 756.604C974.181 756.894 971.351 760.748 969.778 757.802C969.563 757.383 970.326 755.778 969.134 755.372C967.934 754.96 966.082 754.612 964.389 754.554C963.571 754.534 962.784 754.58 962.132 754.728C960.662 755.063 962.124 757.815 960.368 756.9C959.589 756.487 961.195 754.992 959.724 754.354C958.27 753.716 954.439 753.568 952.969 753.529C951.515 753.497 952.119 755.579 951.992 755.708C951.205 756.449 948.288 757.242 948.042 757.222C946.214 757.132 944.418 756.964 942.645 756.732C935.389 755.798 928.499 753.89 921.545 752.736C918.485 752.227 915.37 751.827 912.119 751.666C911.134 751.615 911.325 753.825 911.166 753.838C907.653 754.238 911.507 749.004 909.687 746.787C909.02 751.118 907.867 750.145 905.459 750.235C904.299 750.28 904.474 752.034 904.331 752.182C902.773 753.697 902.121 752.594 901.843 751.512C901.708 750.996 901.661 750.487 901.621 750.255C901.216 747.631 899.245 750.287 898.974 748.527C898.72 746.781 901.057 744.712 898.919 744.331C897.862 745.73 898.307 750.01 896.455 750.326C892.473 751.002 887.236 749.442 882.714 747.599C879.257 746.2 876.197 744.66 874.147 743.938C869.426 742.256 867.757 742.043 865.206 740.657C865.134 740.619 865.063 740.58 864.991 740.541C860.652 738.234 861.065 741.527 857.346 741.779C853.547 742.011 858.594 735.649 858.896 734.025C859.221 732.401 857.974 733.761 857.862 732.768C857.751 731.782 859.412 731.169 858.331 730.441C857.266 729.719 852.49 731.137 851.202 732.497C848.54 735.353 848.198 739.239 845.615 737.061C845.576 737.022 845.536 736.99 845.488 736.951C845.337 736.809 846.951 735.256 846.323 734.805C841.395 731.389 835.681 729.01 830.849 725.646C830.738 725.562 830.619 725.478 830.499 725.394C829.824 724.911 831.731 723.254 831.358 722.951C827.471 719.787 827.09 723.744 822.202 726.284C825.858 721.708 826.327 718.182 822.862 716.661C820.78 715.739 819.762 717.982 817.426 718.865C816.727 719.129 816.186 717.047 815.264 717.911C813.277 719.754 812.181 722.191 810.901 722.81C810.226 723.132 809.502 722.951 808.58 721.907C808.469 721.772 810.146 720.244 809.669 719.89C806.594 717.628 803.915 720.779 799.791 719.445C796.556 718.395 792.626 713.903 789.493 711.986C793.333 706.746 789.314 706.463 785.398 709.471C783.322 708.283 780.821 707.357 779.088 705.841C778.492 705.322 780.083 704.036 780.112 703.828C780.614 700.586 777.084 703.637 776.513 703.546C776.265 703.5 776.023 703.447 775.788 703.389C770.267 702.031 768.062 697.737 761.584 697.913C761.344 697.921 758.325 701.387 759.044 698.113C759.1 697.89 761.932 697.044 759.773 695.787C757.612 694.529 754.857 690.465 750.459 690.549C749.398 690.567 745.237 692.511 745.467 689.457C745.503 689.044 746.522 688.129 746.671 687.406C747.133 685.099 743.806 688.46 745.077 684.811C745.863 682.556 745.961 680.362 744.793 679.14C744.071 678.385 742.867 678.001 741.043 678.2C740.896 678.211 737.923 680.702 736.974 680.153C735.461 679.273 733.696 677.534 732.041 676.713C731.247 676.321 730.364 678.359 730.201 678.322C724.144 676.617 721.625 673.106 716.493 669.53C715.554 668.87 710.691 669.789 710.163 666.844C709.619 663.865 717.265 657.143 713.171 655.736C712.828 655.618 712.403 655.539 711.883 655.501C709.166 655.293 698.067 665.152 698.761 657.52C690.497 655.385 686.019 649.129 677.202 647.72C676.805 647.655 673.487 650.323 672.751 649.917C671.661 649.307 672.092 647.531 671.343 647.048C671.115 646.898 670.882 646.757 670.644 646.624C667.638 644.953 663.948 644.677 660.994 643.087C659.78 642.44 661.29 641.097 659.834 640.325C658.376 639.554 655.978 641.141 654.594 639.24C653.555 637.799 654.799 632.924 653.025 631.519C650.2 635.623 648.83 634.912 645.577 634.918C644.95 634.922 644.53 636.592 644.185 636.668C642.766 637.013 642.677 635.444 641.261 635.879C640.919 635.983 639.993 637.401 639.662 637.566C636.823 639.028 636.397 634.792 636.315 634.053C636.012 631.247 634.075 632.792 633.336 631.438C633.278 631.331 633.24 631.231 633.218 631.136C632.969 630.034 635.044 629.716 633.969 628.692C631.546 626.385 627.418 625.037 624.296 623.754C623.044 623.251 622.774 625.518 622.569 625.491C619.696 624.986 618.218 621.924 614.586 625.27C618.403 614.561 612.465 625.657 609.859 622.3C609.655 622.032 611.866 617.12 613.4 616.833C614.936 616.548 615.852 618.668 618.046 618.166C618.558 618.046 623.239 614.41 623.696 614.256C627.234 613.036 623.479 620.223 623.373 620.655C622.311 625.354 627.683 621.598 628.577 621.545C632.618 621.273 634.686 623.324 637.952 623.322C637.988 623.322 638.024 623.321 638.06 623.319C640.184 623.181 643.121 618.857 644.367 619.544C648.593 621.878 646.032 628.832 653.764 625.165C655.42 624.389 657.78 619.079 658.441 624.349C658.488 624.683 658.498 629.252 661.36 627.628C661.721 627.423 662.679 625.994 662.987 625.975C665.034 625.877 665.277 627.465 667.299 627.666C669.321 627.867 671.865 627.963 673.409 629.305C674.342 630.112 673.938 633.414 674.018 634.306C674.22 636.85 677.964 634.599 677.342 637.227C677.34 637.238 677.338 637.249 677.335 637.26C676.665 639.952 672.402 642.515 673.806 645.117C676.513 641.505 679.409 637.853 682.19 634.248C687.532 636.939 691.966 640.666 697.443 643.131C698.126 643.433 698.894 641.155 699.664 641.43C702.908 642.6 704.487 645.278 708.001 646.271C710.727 647.032 714.912 646.301 717.808 647.046C717.413 648.236 717.398 649.165 717.637 649.912C718.373 652.227 721.534 652.817 723.34 654.128C724.177 654.733 723.269 655.796 723.658 656.491C725.148 659.088 726.772 654.869 727.902 654.65C732.738 653.725 726.643 662.042 730.265 663.61C730.455 663.696 736.09 660.482 736.61 660.369C739.952 659.602 735.755 662.053 736.733 663.004C738.518 664.74 739.263 666.578 742.884 666.645C743.944 666.66 747.895 664.882 747.744 667.744C747.726 668.119 746.496 669.505 746.588 669.67C748.112 672.16 751.028 669.09 753.615 667.782C754.003 667.585 754.384 667.429 754.752 667.336C757.567 666.632 757.646 671.038 757.459 672.201C756.987 675.215 755.663 672.677 755.413 672.869C752.45 675.16 754.645 675.625 755.868 676.568C752.629 681.118 754.797 681.849 757.148 677.527C757.402 677.053 755.992 676.914 755.868 676.568C760.473 672.83 763.044 673.358 762.275 678.644C761.914 681.12 759.145 682.822 763.158 683.714C764.977 684.12 766.736 680.75 768.729 680.593C773.276 680.235 775.106 685.11 778.645 686.238C779.927 686.646 780.07 684.399 780.989 684.619C783.428 685.196 784.331 687.377 786.926 687.756C787.157 687.787 787.978 685.869 788.643 686.067C788.657 686.072 788.671 686.077 788.685 686.083C793.798 688.295 797.287 691.518 802.477 694.005C804.988 695.211 810.146 696.288 812.61 697.673C816.027 699.59 819.19 703.284 822.6 705.234C823.442 705.721 824.3 706.098 825.175 706.31C828.02 707.012 828.656 704.938 830.563 704.16C834.219 702.638 835.133 708.544 835.228 709.435C835.228 709.466 832.741 708.972 833.321 710.412C832.749 712.669 835.196 709.434 835.228 709.435C835.26 709.877 837.732 711.313 839.369 711.944C839.861 712.135 840.275 712.255 840.529 712.255C841.125 712.255 841.944 710.39 842.23 710.423C848.015 711.107 853.253 712.491 858.053 714.695C858.927 715.101 859.794 715.533 860.644 715.99C860.731 716.061 859.484 718.014 859.698 718.162C862.702 720.302 866.247 718.594 869.823 718.046C872.279 717.679 873.972 718.117 874.822 719.742C875.204 720.483 875.41 721.469 875.434 722.739C877.81 722.958 880.242 725.433 881.673 726.89C883.111 728.359 885.027 724.363 885.217 724.331C887.84 723.783 889.652 724.041 891.313 724.647C893.443 725.42 895.311 726.761 898.156 727.605C900.437 728.295 905.141 728.662 907.995 728.694C908.146 728.694 908.297 728.694 908.432 728.694C910.633 728.694 911.674 729.887 913.772 729.558C914.058 729.513 914.225 727.605 914.329 727.547C916.983 725.633 914.917 730.048 915.179 730.931C916.133 734.141 916.848 735.881 919.979 734.837C920.726 734.605 923.794 728.198 925.081 727.94C925.288 727.902 925.455 727.902 925.598 727.934C926.599 728.159 926.019 729.893 927.625 729.545C927.776 729.513 927.982 728.043 929.031 728.217C933.871 728.997 938.998 730.332 944.132 730.583C944.831 730.622 944.219 728.211 945.22 728.23C945.459 728.237 945.689 728.237 945.928 728.243C950.442 728.359 955.266 728.804 959.526 730.074C960.63 730.415 959.796 732.02 960.002 732.517C961.29 735.546 963.754 731.363 964.103 731.298C964.723 731.176 965.327 731.086 965.923 731.015C973.06 730.216 978.766 733.155 986.086 732.117C986.539 732.053 987 731.975 987.461 731.872C987.945 731.769 991.49 727.18 993.096 731.118C993.199 731.376 994.828 735.411 996.195 732.633C996.274 732.459 995.265 730.39 996.982 730.583C998.698 730.776 1001.39 729.345 1003.82 731.569C1004.29 732.001 1005.2 733.664 1006.32 734.128C1007.03 734.424 1007.82 734.244 1008.62 732.974C1008.78 732.742 1011.76 725.369 1013.27 730.319C1013.53 731.131 1013.66 736.442 1016.15 733.606C1016.62 733.052 1015.62 731.917 1016.89 731.118C1018.84 729.88 1021.66 731.15 1023.93 728.636C1024.18 728.353 1024.88 726.741 1025.79 726.297C1026.31 726.039 1026.9 726.155 1027.54 727.102C1027.82 727.515 1027.57 729.307 1028.37 729.449C1032.21 730.132 1035.96 728.624 1039.8 729.494C1041.19 729.79 1040.95 732.697 1042.47 733.322C1043.58 733.767 1045.45 734.115 1046.91 733.722C1047.48 733.567 1047.99 733.303 1048.36 732.897C1049.7 731.434 1047.26 727.096 1049.53 726.477C1059.47 723.809 1070.16 725.42 1080.52 724.879C1081.97 724.801 1080.72 723.454 1082.47 723.106C1082.58 723.087 1082.69 723.068 1082.82 723.055C1091.12 722.172 1105.54 719.542 1113.22 722.578C1119.33 724.995 1112.16 727.547 1116.72 728.411C1118.09 728.669 1119.35 726.632 1120.22 725.027C1120.75 724.079 1121.13 723.28 1121.32 723.209C1126.31 721.25 1130.05 723.441 1134.62 722.552C1135.58 722.365 1134.52 720.251 1135.33 720.122C1138.1 719.651 1141.09 720.522 1143.76 720.283C1144.95 720.173 1144.68 718.536 1145.8 718.639C1148.46 718.865 1150.83 719.522 1153.44 721.031C1153.67 721.173 1152.13 723.229 1154.08 723.287C1155.26 723.319 1156.56 723.551 1157.89 723.744C1160.14 724.073 1162.52 724.305 1164.81 723.345C1165.89 722.881 1166 719.129 1168.3 721.746C1168.77 722.294 1168.04 726.787 1170.85 722.939C1171.3 722.3 1176.11 717.144 1178.24 720.605C1178.79 721.514 1180.12 725.246 1181.45 724.711C1181.63 724.627 1181.03 722.591 1182.13 722.429C1186 721.92 1190.02 722.326 1194.03 721.933C1195.1 721.83 1193.71 719.651 1195.32 719.561C1195.73 719.535 1196.15 719.522 1196.59 719.516C1200.75 719.477 1205.55 720.347 1209.34 721.295C1210.89 721.682 1209.55 723.299 1209.64 723.493C1211.03 726.703 1212.71 722.713 1213.37 722.533C1217.4 721.488 1219.98 723.738 1223.56 723.667C1224.56 723.648 1224.24 721.617 1224.46 721.469C1226.8 720.032 1224.64 723.332 1225.82 723.88C1228.66 725.201 1231.96 725.691 1235.13 726C1235.67 726.052 1236.19 726.103 1236.72 726.148C1238.05 726.258 1237.11 723.789 1238.31 723.918C1245.47 724.66 1252.59 726.226 1259.23 728.984C1260.45 729.507 1259.05 731.021 1259.19 731.466C1260.09 734.573 1264.05 731.511 1264.82 731.318C1268.2 730.39 1268.7 732.143 1271.18 732.471C1272.13 732.6 1273.09 732.749 1274.05 732.916C1278.92 733.767 1285.1 735.604 1290.1 737.525C1295.34 739.523 1300.27 741.856 1304.63 744.131C1306.33 745.021 1307.95 745.897 1309.47 746.742C1312.49 748.411 1315.23 750.087 1317.8 751.744C1322.1 754.515 1325.95 757.235 1329.8 759.897C1333.58 762.514 1337.37 765.073 1341.55 767.599C1341.73 767.709 1341.92 767.825 1342.11 767.935C1342.83 768.367 1343.93 766.085 1344.57 766.433C1348.26 768.508 1351.71 770.861 1354.96 773.13C1358.52 775.624 1361.89 777.854 1366.28 780.097C1366.93 780.426 1367.7 778.125 1368.79 778.596C1369.17 778.757 1369.56 778.937 1369.95 779.137C1371.85 780.117 1373.8 781.541 1375.1 783.082C1375.88 783.984 1373.08 784.654 1373.9 785.531C1375.76 787.574 1378.26 789.321 1381.06 790.636C1382.14 791.145 1382.31 788.876 1383.4 789.095C1383.51 789.121 1383.64 789.166 1383.77 789.25C1388.72 792.247 1393.76 795.373 1398.48 799.105C1403.07 802.74 1407.38 806.969 1410.73 812.125C1410.87 812.344 1410.64 812.821 1410.29 813.401C1409.51 814.742 1408.15 816.598 1409.64 817.056C1410.93 816.315 1412.33 815.335 1413.66 814.491C1417.92 818.203 1421.86 822.444 1425.25 827.259C1429.05 832.474 1432.92 840.382 1434.33 846.351C1435.66 851.327 1436.58 858.043 1436.77 863.122C1436.78 863.541 1436.81 863.96 1436.82 864.379C1436.85 865.094 1439.79 863.741 1439.85 865.146C1440.05 869.903 1440.16 874.408 1439.44 878.714C1438.93 881.737 1438.01 884.656 1436.39 887.447C1436 888.118 1430.79 887.299 1431.3 889.375C1431.36 889.62 1431.51 891.07 1431.89 892.256C1432.08 892.849 1432.33 893.377 1432.67 893.667C1432.83 893.79 1435.36 893.5 1435.29 894.46C1434.96 898.192 1434.18 901.84 1433.08 905.237C1432.54 906.887 1431.94 908.479 1431.26 910.007C1430.92 910.767 1428.4 909.736 1428.13 910.277C1427.18 912.275 1427.17 914.383 1427.08 916.375C1426.99 918.25 1426.83 920.017 1425.72 921.673C1424.2 923.974 1419.62 923.278 1415.25 924.812C1414.62 925.031 1414.67 926.597 1412.1 926.881C1405.6 927.629 1398.36 927.255 1391.44 928.119C1389.94 928.312 1391.92 930.967 1388.08 929.62C1387.82 929.53 1386.39 927.551 1385.12 927.1C1384.24 926.784 1381.65 927.603 1380.5 926.907C1379.35 926.198 1381.5 925.263 1380.17 924.077C1378.82 922.878 1375.81 923.484 1375.41 920.964ZM888.309 733.38C889.342 735.772 892.211 728.624 889.731 729.9C889.612 729.964 888.253 733.258 888.309 733.38ZM688.337 645.528C688.391 649.417 692.958 645.957 693.062 643.019C693.153 640.08 688.311 644.346 688.337 645.528ZM664.286 637.017C665.258 640.459 672.139 631.367 668.063 631.98C667.828 632.012 664.228 636.817 664.286 637.017ZM1413.82 918.47C1413.69 918.489 1413.55 919.656 1413.67 919.688C1416.6 920.3 1416.88 918.031 1413.82 918.47ZM639.993 629.417C639.994 631.036 643.271 630.538 643.28 628.523C643.281 626.897 639.984 627.397 639.993 629.417ZM983.431 751.28C983.463 751.396 984.56 751.505 984.552 750.873C984.504 748.837 982.97 749.391 983.431 751.28ZM600.118 614.58C605.975 616.972 605.178 626.302 599.311 623.199C598.236 622.638 603.146 621.46 602.052 620.226C600.011 617.961 595.631 622.48 594.232 618.831C593.965 618.158 599.782 614.419 600.133 614.572C600.129 614.575 600.123 614.577 600.118 614.58ZM886.131 742.275C886.139 742.385 887.57 742.823 887.641 742.739C889.247 740.632 886.393 739.755 886.131 742.275ZM1048.34 753.02C1048.4 753.116 1049.24 753.129 1050.11 753.084C1051.06 753.046 1052.06 752.942 1052.1 752.833C1052.73 750.68 1051.02 749.765 1049.59 749.965C1048.33 750.145 1047.3 751.189 1048.34 753.02ZM789.541 711.821C786.6 713.213 784.674 712.627 785.403 709.477C786.743 710.301 788.18 711.009 789.541 711.821Z" fill="#A6BE47" fill-opacity="0.2"/>
</svg>
